# MagicaVoxel @ Ephtracy

# group
o 

# material
mtllib chr_knight.mtl
usemtl palette

# normals
vn -1 0 0
vn 1 0 0
vn 0 0 1
vn 0 0 -1
vn 0 -1 0
vn 0 1 0

# texcoords
vt 0.228516 0.5
vt 0.369141 0.5
vt 0.373047 0.5
vt 0.630859 0.5
vt 0.650391 0.5
vt 0.654297 0.5
vt 0.880859 0.5
vt 0.888672 0.5
vt 0.896484 0.5
vt 0.900391 0.5
vt 0.904297 0.5

# verts
v -0.5 0 0.5
v -0.5 0 0.4
v -0.5 0 0.3
v -0.5 0 0.1
v -0.5 0 0
v -0.5 0 -0.5
v -0.5 0.1 0.5
v -0.5 0.1 0.4
v -0.5 0.1 0.3
v -0.5 0.1 0.2
v -0.5 0.1 0
v -0.5 0.1 -0.1
v -0.5 0.1 -0.2
v -0.5 0.1 -0.3
v -0.5 0.1 -0.4
v -0.5 0.1 -0.5
v -0.5 0.2 0.5
v -0.5 0.2 0.4
v -0.5 0.2 0.3
v -0.5 0.2 0.1
v -0.5 0.2 0
v -0.5 0.2 -0.1
v -0.5 0.2 -0.2
v -0.5 0.2 -0.3
v -0.5 0.2 -0.4
v -0.5 0.3 0.5
v -0.5 0.3 0.4
v -0.5 0.3 0.2
v -0.5 0.3 0.1
v -0.5 0.3 -0.1
v -0.5 0.3 -0.2
v -0.5 0.3 -0.3
v -0.5 0.3 -0.4
v -0.5 0.3 -0.5
v -0.5 0.4 0.4
v -0.5 0.4 0.1
v -0.5 0.4 0
v -0.5 0.4 -0.2
v -0.5 0.4 -0.3
v -0.5 0.4 -0.4
v -0.5 0.4 -0.5
v -0.5 0.5 0.3
v -0.5 0.5 -0.2
v -0.5 0.5 -0.3
v -0.5 0.5 -0.5
v -0.5 0.6 0.5
v -0.5 0.6 0.3
v -0.5 0.6 0.2
v -0.5 0.6 0
v -0.5 0.6 -0.2
v -0.5 0.6 -0.3
v -0.5 0.6 -0.5
v -0.5 0.7 0.5
v -0.5 0.7 0.4
v -0.5 0.7 0.2
v -0.5 0.7 0
v -0.5 0.7 -0.2
v -0.5 0.7 -0.4
v -0.5 0.8 0.5
v -0.5 0.8 0.4
v -0.5 0.8 0.3
v -0.5 0.8 0.2
v -0.5 0.8 0.1
v -0.5 0.8 -0.1
v -0.5 0.8 -0.4
v -0.5 0.8 -0.5
v -0.5 0.9 0.5
v -0.5 0.9 0.4
v -0.5 0.9 0.3
v -0.5 0.9 0.2
v -0.5 0.9 0.1
v -0.5 0.9 0
v -0.5 0.9 -0.1
v -0.5 0.9 -0.2
v -0.5 0.9 -0.3
v -0.5 0.9 -0.4
v -0.5 0.9 -0.5
v -0.5 1 0.5
v -0.5 1 0.4
v -0.5 1 0.3
v -0.5 1 0.2
v -0.5 1 0.1
v -0.5 1 0
v -0.5 1 -0.1
v -0.5 1 -0.2
v -0.5 1 -0.3
v -0.5 1 -0.4
v -0.5 1 -0.5
v 0.4 0.1 0.4
v 0.4 0.1 0.1
v 0.4 0.1 0
v 0.4 0.1 -0.2
v 0.4 0.1 -0.3
v 0.4 0.1 -0.4
v 0.4 0.2 0.3
v 0.4 0.2 0.2
v 0.4 0.2 0.1
v 0.4 0.2 0
v 0.4 0.2 -0.1
v 0.4 0.2 -0.2
v 0.4 0.2 -0.3
v 0.4 0.2 -0.4
v 0.4 0.3 0.4
v 0.4 0.3 0.3
v 0.4 0.3 0.2
v 0.4 0.3 0.1
v 0.4 0.3 0
v 0.4 0.3 -0.1
v 0.4 0.3 -0.2
v 0.4 0.3 -0.3
v 0.4 0.3 -0.4
v 0.4 0.4 0.4
v 0.4 0.4 0.3
v 0.4 0.4 0.2
v 0.4 0.4 0
v 0.4 0.4 -0.2
v 0.4 0.4 -0.3
v 0.4 0.4 -0.4
v 0.4 0.5 0.4
v 0.4 0.5 0
v 0.4 0.5 -0.1
v 0.4 0.5 -0.3
v 0.4 0.5 -0.4
v 0.4 0.6 0.4
v 0.4 0.6 0.3
v 0.4 0.6 0.2
v 0.4 0.6 0
v 0.4 0.6 -0.1
v 0.4 0.6 -0.2
v 0.4 0.6 -0.4
v 0.4 0.7 0.4
v 0.4 0.7 0.3
v 0.4 0.7 0.2
v 0.4 0.7 0
v 0.4 0.7 -0.2
v 0.4 0.7 -0.3
v 0.4 0.7 -0.4
v 0.4 0.8 0.3
v 0.4 0.8 0.2
v 0.4 0.8 0
v 0.4 0.8 -0.1
v 0.4 0.8 -0.2
v 0.4 0.8 -0.3
v 0.4 0.8 -0.4
v 0.4 0.9 0.4
v 0.4 0.9 0.3
v 0.4 0.9 0.2
v 0.4 0.9 0
v 0.4 0.9 -0.1
v 0.4 0.9 -0.3
v 0.4 0.9 -0.4
v -0.4 0.1 0.4
v -0.4 0.1 0.3
v -0.4 0.1 0.2
v -0.4 0.1 0.1
v -0.4 0.1 -0.1
v -0.4 0.1 -0.2
v -0.4 0.1 -0.3
v -0.4 0.1 -0.4
v -0.4 0.2 0.4
v -0.4 0.2 0.3
v -0.4 0.2 0.1
v -0.4 0.2 0
v -0.4 0.2 -0.1
v -0.4 0.2 -0.2
v -0.4 0.2 -0.3
v -0.4 0.2 -0.4
v -0.4 0.3 0.4
v -0.4 0.3 0.2
v -0.4 0.3 0.1
v -0.4 0.3 -0.1
v -0.4 0.3 -0.2
v -0.4 0.3 -0.3
v -0.4 0.3 -0.4
v -0.4 0.4 0.4
v -0.4 0.4 0.1
v -0.4 0.4 0
v -0.4 0.4 -0.2
v -0.4 0.4 -0.3
v -0.4 0.4 -0.4
v -0.4 0.5 0.3
v -0.4 0.5 -0.2
v -0.4 0.5 -0.3
v -0.4 0.5 -0.4
v -0.4 0.6 0.4
v -0.4 0.6 0.3
v -0.4 0.6 0.2
v -0.4 0.6 0
v -0.4 0.6 -0.2
v -0.4 0.6 -0.3
v -0.4 0.6 -0.4
v -0.4 0.7 0.4
v -0.4 0.7 0.2
v -0.4 0.7 0
v -0.4 0.7 -0.2
v -0.4 0.7 -0.4
v -0.4 0.8 0.3
v -0.4 0.8 0.2
v -0.4 0.8 0.1
v -0.4 0.8 -0.1
v -0.4 0.9 0.4
v -0.4 0.9 0.3
v -0.4 0.9 0.2
v -0.4 0.9 0.1
v -0.4 0.9 0
v -0.4 0.9 -0.1
v -0.4 0.9 -0.2
v -0.4 0.9 -0.3
v -0.4 0.9 -0.4
v 0.5 0 0.5
v 0.5 0 0.4
v 0.5 0 0.3
v 0.5 0 0.1
v 0.5 0 0
v 0.5 0 -0.2
v 0.5 0 -0.3
v 0.5 0 -0.4
v 0.5 0 -0.5
v 0.5 0.1 0.4
v 0.5 0.1 0.3
v 0.5 0.2 0.5
v 0.5 0.2 0.4
v 0.5 0.2 0.3
v 0.5 0.2 0.2
v 0.5 0.2 0.1
v 0.5 0.2 0
v 0.5 0.2 -0.1
v 0.5 0.2 -0.2
v 0.5 0.2 -0.3
v 0.5 0.2 -0.4
v 0.5 0.2 -0.5
v 0.5 0.3 0.5
v 0.5 0.3 0.4
v 0.5 0.3 0.3
v 0.5 0.3 0.2
v 0.5 0.3 0.1
v 0.5 0.3 0
v 0.5 0.3 -0.1
v 0.5 0.3 -0.2
v 0.5 0.3 -0.3
v 0.5 0.3 -0.4
v 0.5 0.4 0.5
v 0.5 0.4 0.4
v 0.5 0.4 0.3
v 0.5 0.4 0.2
v 0.5 0.4 0
v 0.5 0.4 -0.2
v 0.5 0.4 -0.3
v 0.5 0.4 -0.4
v 0.5 0.4 -0.5
v 0.5 0.5 0.5
v 0.5 0.5 0.4
v 0.5 0.5 0
v 0.5 0.5 -0.1
v 0.5 0.5 -0.3
v 0.5 0.5 -0.4
v 0.5 0.5 -0.5
v 0.5 0.6 0.4
v 0.5 0.6 0.3
v 0.5 0.6 0.2
v 0.5 0.6 0
v 0.5 0.6 -0.1
v 0.5 0.6 -0.2
v 0.5 0.6 -0.5
v 0.5 0.7 0.5
v 0.5 0.7 0.4
v 0.5 0.7 0.3
v 0.5 0.7 0.2
v 0.5 0.7 0
v 0.5 0.7 -0.2
v 0.5 0.7 -0.3
v 0.5 0.7 -0.4
v 0.5 0.7 -0.5
v 0.5 0.8 0.5
v 0.5 0.8 0.4
v 0.5 0.8 0.3
v 0.5 0.8 0.2
v 0.5 0.8 0
v 0.5 0.8 -0.1
v 0.5 0.8 -0.2
v 0.5 0.8 -0.3
v 0.5 0.8 -0.4
v 0.5 0.9 0.5
v 0.5 0.9 0.4
v 0.5 0.9 0.3
v 0.5 0.9 0.2
v 0.5 0.9 0.1
v 0.5 0.9 0
v 0.5 0.9 -0.1
v 0.5 0.9 -0.2
v 0.5 0.9 -0.4
v 0.5 0.9 -0.5
v 0.5 1 0.5
v 0.5 1 0.4
v 0.5 1 0.3
v 0.5 1 0.2
v 0.5 1 0.1
v 0.5 1 -0.1
v 0.5 1 -0.2
v 0.5 1 -0.4
v 0.5 1 -0.5
v -0.5 0 0.5
v -0.5 0.1 0.5
v -0.5 0.2 0.5
v -0.5 0.3 0.5
v -0.5 0.6 0.5
v -0.5 0.7 0.5
v -0.5 0.8 0.5
v -0.5 0.9 0.5
v -0.5 1 0.5
v -0.4 0 0.5
v -0.4 0.1 0.5
v -0.4 0.2 0.5
v -0.4 0.3 0.5
v -0.4 0.7 0.5
v -0.4 0.8 0.5
v -0.4 0.9 0.5
v -0.4 1 0.5
v -0.3 0.2 0.5
v -0.3 0.3 0.5
v -0.3 0.4 0.5
v -0.3 0.5 0.5
v -0.3 0.6 0.5
v -0.3 0.9 0.5
v -0.3 1 0.5
v -0.2 0 0.5
v -0.2 0.1 0.5
v -0.2 0.3 0.5
v -0.2 0.4 0.5
v -0.2 0.6 0.5
v -0.2 0.7 0.5
v -0.2 0.8 0.5
v -0.2 0.9 0.5
v -0.2 1 0.5
v -0.1 0 0.5
v -0.1 0.1 0.5
v -0.1 0.2 0.5
v -0.1 0.4 0.5
v -0.1 0.5 0.5
v -0.1 0.6 0.5
v -0.1 0.8 0.5
v -0.1 0.9 0.5
v -0.1 1 0.5
v 0 0.1 0.5
v 0 0.2 0.5
v 0 0.3 0.5
v 0 0.5 0.5
v 0 0.6 0.5
v 0 0.7 0.5
v 0 0.8 0.5
v 0 0.9 0.5
v 0 1 0.5
v 0.1 0 0.5
v 0.1 0.1 0.5
v 0.1 0.2 0.5
v 0.1 0.3 0.5
v 0.1 0.4 0.5
v 0.1 0.5 0.5
v 0.1 0.6 0.5
v 0.1 0.8 0.5
v 0.1 0.9 0.5
v 0.2 0 0.5
v 0.2 0.1 0.5
v 0.2 0.2 0.5
v 0.2 0.3 0.5
v 0.2 0.4 0.5
v 0.2 0.6 0.5
v 0.2 0.7 0.5
v 0.2 0.8 0.5
v 0.2 0.9 0.5
v 0.2 1 0.5
v 0.3 0 0.5
v 0.3 0.1 0.5
v 0.3 0.3 0.5
v 0.3 0.4 0.5
v 0.3 0.6 0.5
v 0.3 0.7 0.5
v 0.3 0.9 0.5
v 0.4 0.1 0.5
v 0.4 0.2 0.5
v 0.4 0.3 0.5
v 0.4 0.4 0.5
v 0.4 0.6 0.5
v 0.4 0.7 0.5
v 0.4 0.8 0.5
v 0.4 0.9 0.5
v 0.4 1 0.5
v 0.5 0 0.5
v 0.5 0.2 0.5
v 0.5 0.3 0.5
v 0.5 0.4 0.5
v 0.5 0.5 0.5
v 0.5 0.7 0.5
v 0.5 0.8 0.5
v 0.5 0.9 0.5
v 0.5 1 0.5
v -0.4 0.1 -0.4
v -0.4 0.2 -0.4
v -0.4 0.3 -0.4
v -0.4 0.4 -0.4
v -0.4 0.5 -0.4
v -0.4 0.6 -0.4
v -0.4 0.7 -0.4
v -0.4 0.9 -0.4
v -0.3 0.1 -0.4
v -0.3 0.2 -0.4
v -0.3 0.3 -0.4
v -0.3 0.4 -0.4
v -0.3 0.5 -0.4
v -0.3 0.6 -0.4
v -0.3 0.7 -0.4
v -0.3 0.9 -0.4
v -0.2 0.2 -0.4
v -0.2 0.3 -0.4
v -0.2 0.4 -0.4
v -0.2 0.6 -0.4
v -0.2 0.7 -0.4
v -0.2 0.9 -0.4
v -0.1 0.1 -0.4
v -0.1 0.3 -0.4
v -0.1 0.4 -0.4
v -0.1 0.7 -0.4
v -0.1 0.8 -0.4
v 0 0.1 -0.4
v 0 0.7 -0.4
v 0 0.8 -0.4
v 0.1 0.1 -0.4
v 0.1 0.2 -0.4
v 0.1 0.3 -0.4
v 0.1 0.4 -0.4
v 0.1 0.7 -0.4
v 0.1 0.8 -0.4
v 0.1 0.9 -0.4
v 0.2 0.2 -0.4
v 0.2 0.3 -0.4
v 0.2 0.4 -0.4
v 0.2 0.5 -0.4
v 0.2 0.7 -0.4
v 0.2 0.8 -0.4
v 0.2 0.9 -0.4
v 0.3 0.2 -0.4
v 0.3 0.3 -0.4
v 0.3 0.4 -0.4
v 0.3 0.5 -0.4
v 0.3 0.8 -0.4
v 0.3 0.9 -0.4
v 0.4 0.1 -0.4
v 0.4 0.2 -0.4
v 0.4 0.3 -0.4
v 0.4 0.4 -0.4
v 0.4 0.5 -0.4
v 0.4 0.6 -0.4
v 0.4 0.7 -0.4
v 0.4 0.8 -0.4
v 0.4 0.9 -0.4
v -0.4 0.1 0.4
v -0.4 0.2 0.4
v -0.4 0.3 0.4
v -0.4 0.4 0.4
v -0.4 0.6 0.4
v -0.4 0.7 0.4
v -0.4 0.9 0.4
v -0.3 0.2 0.4
v -0.3 0.3 0.4
v -0.3 0.4 0.4
v -0.3 0.5 0.4
v -0.3 0.6 0.4
v -0.3 0.9 0.4
v -0.2 0.1 0.4
v -0.2 0.3 0.4
v -0.2 0.4 0.4
v -0.2 0.6 0.4
v -0.2 0.7 0.4
v -0.2 0.8 0.4
v -0.2 0.9 0.4
v -0.1 0.2 0.4
v -0.1 0.4 0.4
v -0.1 0.5 0.4
v -0.1 0.6 0.4
v -0.1 0.8 0.4
v -0.1 0.9 0.4
v 0 0.1 0.4
v 0 0.2 0.4
v 0 0.3 0.4
v 0 0.5 0.4
v 0 0.6 0.4
v 0 0.7 0.4
v 0 0.8 0.4
v 0 0.9 0.4
v 0.1 0.2 0.4
v 0.1 0.3 0.4
v 0.1 0.4 0.4
v 0.1 0.5 0.4
v 0.1 0.6 0.4
v 0.1 0.8 0.4
v 0.1 0.9 0.4
v 0.2 0.1 0.4
v 0.2 0.2 0.4
v 0.2 0.3 0.4
v 0.2 0.4 0.4
v 0.2 0.6 0.4
v 0.2 0.7 0.4
v 0.2 0.8 0.4
v 0.3 0.1 0.4
v 0.3 0.3 0.4
v 0.3 0.4 0.4
v 0.3 0.6 0.4
v 0.3 0.7 0.4
v 0.3 0.9 0.4
v 0.4 0.1 0.4
v 0.4 0.3 0.4
v 0.4 0.4 0.4
v 0.4 0.5 0.4
v 0.4 0.6 0.4
v 0.4 0.7 0.4
v 0.4 0.9 0.4
v -0.5 0 -0.5
v -0.5 0.1 -0.5
v -0.5 0.3 -0.5
v -0.5 0.4 -0.5
v -0.5 0.5 -0.5
v -0.5 0.6 -0.5
v -0.5 0.8 -0.5
v -0.5 0.9 -0.5
v -0.5 1 -0.5
v -0.4 0 -0.5
v -0.4 0.1 -0.5
v -0.4 0.2 -0.5
v -0.4 0.3 -0.5
v -0.4 0.7 -0.5
v -0.4 0.8 -0.5
v -0.4 0.9 -0.5
v -0.4 1 -0.5
v -0.3 0 -0.5
v -0.3 0.2 -0.5
v -0.3 0.3 -0.5
v -0.3 0.4 -0.5
v -0.3 0.5 -0.5
v -0.3 0.6 -0.5
v -0.3 0.7 -0.5
v -0.3 0.9 -0.5
v -0.3 1 -0.5
v -0.2 0 -0.5
v -0.2 0.1 -0.5
v -0.2 0.2 -0.5
v -0.2 0.3 -0.5
v -0.2 0.4 -0.5
v -0.2 0.6 -0.5
v -0.2 0.7 -0.5
v -0.2 0.9 -0.5
v -0.2 1 -0.5
v -0.1 0.1 -0.5
v -0.1 0.3 -0.5
v -0.1 0.4 -0.5
v -0.1 0.7 -0.5
v -0.1 0.8 -0.5
v -0.1 0.9 -0.5
v -0.1 1 -0.5
v 0 0 -0.5
v 0 0.1 -0.5
v 0 0.7 -0.5
v 0 0.8 -0.5
v 0 0.9 -0.5
v 0 1 -0.5
v 0.1 0.2 -0.5
v 0.1 0.3 -0.5
v 0.1 0.4 -0.5
v 0.1 0.7 -0.5
v 0.1 0.8 -0.5
v 0.2 0 -0.5
v 0.2 0.1 -0.5
v 0.2 0.2 -0.5
v 0.2 0.3 -0.5
v 0.2 0.4 -0.5
v 0.2 0.5 -0.5
v 0.2 0.7 -0.5
v 0.2 0.8 -0.5
v 0.2 0.9 -0.5
v 0.2 1 -0.5
v 0.3 0 -0.5
v 0.3 0.1 -0.5
v 0.3 0.2 -0.5
v 0.3 0.3 -0.5
v 0.3 0.4 -0.5
v 0.3 0.5 -0.5
v 0.3 0.8 -0.5
v 0.3 0.9 -0.5
v 0.4 0 -0.5
v 0.4 0.2 -0.5
v 0.4 0.4 -0.5
v 0.4 0.5 -0.5
v 0.4 0.8 -0.5
v 0.4 0.9 -0.5
v 0.5 0 -0.5
v 0.5 0.2 -0.5
v 0.5 0.4 -0.5
v 0.5 0.5 -0.5
v 0.5 0.6 -0.5
v 0.5 0.7 -0.5
v 0.5 0.9 -0.5
v 0.5 1 -0.5
v -0.5 0 0.5
v -0.4 0 0.5
v -0.2 0 0.5
v -0.1 0 0.5
v 0.1 0 0.5
v 0.2 0 0.5
v 0.3 0 0.5
v 0.5 0 0.5
v -0.5 0 0.4
v -0.4 0 0.4
v -0.2 0 0.4
v -0.1 0 0.4
v 0.1 0 0.4
v 0.2 0 0.4
v 0.3 0 0.4
v 0.4 0 0.4
v 0.5 0 0.4
v -0.5 0 0.3
v -0.4 0 0.3
v 0.4 0 0.3
v 0.5 0 0.3
v -0.5 0 0.1
v -0.4 0 0.1
v 0.4 0 0.1
v 0.5 0 0.1
v -0.5 0 0
v -0.4 0 0
v 0.4 0 0
v 0.5 0 0
v 0.4 0 -0.2
v 0.5 0 -0.2
v 0 0 -0.3
v 0.1 0 -0.3
v 0.4 0 -0.3
v 0.5 0 -0.3
v -0.4 0 -0.4
v -0.3 0 -0.4
v -0.2 0 -0.4
v 0 0 -0.4
v 0.1 0 -0.4
v 0.2 0 -0.4
v 0.3 0 -0.4
v 0.4 0 -0.4
v 0.5 0 -0.4
v -0.5 0 -0.5
v -0.4 0 -0.5
v -0.3 0 -0.5
v -0.2 0 -0.5
v 0 0 -0.5
v 0.2 0 -0.5
v 0.3 0 -0.5
v 0.4 0 -0.5
v 0.5 0 -0.5
v -0.4 0.9 0.4
v -0.3 0.9 0.4
v -0.2 0.9 0.4
v -0.1 0.9 0.4
v 0 0.9 0.4
v 0.1 0.9 0.4
v 0.3 0.9 0.4
v 0.4 0.9 0.4
v -0.4 0.9 0.3
v -0.3 0.9 0.3
v -0.2 0.9 0.3
v -0.1 0.9 0.3
v 0 0.9 0.3
v 0.3 0.9 0.3
v 0.4 0.9 0.3
v -0.4 0.9 0.2
v -0.3 0.9 0.2
v -0.2 0.9 0.2
v -0.1 0.9 0.2
v 0 0.9 0.2
v 0.2 0.9 0.2
v 0.3 0.9 0.2
v 0.4 0.9 0.2
v -0.4 0.9 0.1
v -0.3 0.9 0.1
v -0.2 0.9 0.1
v -0.1 0.9 0.1
v 0 0.9 0.1
v 0.1 0.9 0.1
v 0.2 0.9 0.1
v 0.3 0.9 0.1
v -0.4 0.9 0
v -0.3 0.9 0
v -0.1 0.9 0
v 0.1 0.9 0
v 0.3 0.9 0
v 0.4 0.9 0
v -0.4 0.9 -0.1
v -0.3 0.9 -0.1
v -0.2 0.9 -0.1
v -0.1 0.9 -0.1
v 0.1 0.9 -0.1
v 0.2 0.9 -0.1
v 0.3 0.9 -0.1
v 0.4 0.9 -0.1
v -0.4 0.9 -0.2
v -0.3 0.9 -0.2
v -0.2 0.9 -0.2
v -0.1 0.9 -0.2
v 0 0.9 -0.2
v 0.1 0.9 -0.2
v 0.2 0.9 -0.2
v -0.4 0.9 -0.3
v -0.3 0.9 -0.3
v -0.2 0.9 -0.3
v -0.1 0.9 -0.3
v 0 0.9 -0.3
v 0.1 0.9 -0.3
v 0.2 0.9 -0.3
v 0.3 0.9 -0.3
v 0.4 0.9 -0.3
v -0.4 0.9 -0.4
v -0.3 0.9 -0.4
v -0.2 0.9 -0.4
v 0.1 0.9 -0.4
v 0.2 0.9 -0.4
v 0.3 0.9 -0.4
v 0.4 0.9 -0.4
v -0.4 0.1 0.4
v -0.2 0.1 0.4
v 0 0.1 0.4
v 0.2 0.1 0.4
v 0.3 0.1 0.4
v 0.4 0.1 0.4
v -0.4 0.1 0.3
v -0.4 0.1 0.2
v -0.4 0.1 0.1
v 0.4 0.1 0.1
v 0.4 0.1 0
v -0.4 0.1 -0.1
v -0.4 0.1 -0.2
v 0.4 0.1 -0.2
v -0.4 0.1 -0.3
v 0 0.1 -0.3
v 0.1 0.1 -0.3
v 0.4 0.1 -0.3
v -0.4 0.1 -0.4
v -0.3 0.1 -0.4
v -0.1 0.1 -0.4
v 0 0.1 -0.4
v 0.1 0.1 -0.4
v 0.4 0.1 -0.4
v -0.5 1 0.5
v -0.4 1 0.5
v -0.3 1 0.5
v -0.2 1 0.5
v -0.1 1 0.5
v 0 1 0.5
v 0.2 1 0.5
v 0.4 1 0.5
v 0.5 1 0.5
v -0.5 1 0.4
v -0.4 1 0.4
v -0.3 1 0.4
v -0.2 1 0.4
v -0.1 1 0.4
v 0 1 0.4
v 0.2 1 0.4
v 0.4 1 0.4
v 0.5 1 0.4
v -0.5 1 0.3
v -0.4 1 0.3
v -0.3 1 0.3
v -0.2 1 0.3
v -0.1 1 0.3
v 0 1 0.3
v 0.3 1 0.3
v 0.4 1 0.3
v 0.5 1 0.3
v -0.5 1 0.2
v -0.4 1 0.2
v -0.3 1 0.2
v -0.2 1 0.2
v -0.1 1 0.2
v 0 1 0.2
v 0.2 1 0.2
v 0.3 1 0.2
v 0.4 1 0.2
v 0.5 1 0.2
v -0.5 1 0.1
v -0.4 1 0.1
v -0.3 1 0.1
v -0.2 1 0.1
v -0.1 1 0.1
v 0 1 0.1
v 0.1 1 0.1
v 0.2 1 0.1
v 0.3 1 0.1
v 0.4 1 0.1
v 0.5 1 0.1
v -0.5 1 0
v -0.4 1 0
v -0.3 1 0
v -0.1 1 0
v 0.1 1 0
v 0.3 1 0
v 0.4 1 0
v -0.5 1 -0.1
v -0.4 1 -0.1
v -0.3 1 -0.1
v -0.2 1 -0.1
v -0.1 1 -0.1
v 0.1 1 -0.1
v 0.2 1 -0.1
v 0.3 1 -0.1
v 0.4 1 -0.1
v 0.5 1 -0.1
v -0.5 1 -0.2
v -0.4 1 -0.2
v -0.3 1 -0.2
v -0.2 1 -0.2
v -0.1 1 -0.2
v 0 1 -0.2
v 0.1 1 -0.2
v 0.2 1 -0.2
v 0.4 1 -0.2
v 0.5 1 -0.2
v -0.5 1 -0.3
v -0.4 1 -0.3
v -0.3 1 -0.3
v -0.2 1 -0.3
v -0.1 1 -0.3
v 0 1 -0.3
v 0.1 1 -0.3
v 0.2 1 -0.3
v 0.3 1 -0.3
v 0.4 1 -0.3
v -0.5 1 -0.4
v -0.4 1 -0.4
v -0.3 1 -0.4
v -0.2 1 -0.4
v -0.1 1 -0.4
v 0 1 -0.4
v 0.1 1 -0.4
v 0.2 1 -0.4
v 0.3 1 -0.4
v 0.5 1 -0.4
v -0.5 1 -0.5
v -0.4 1 -0.5
v -0.3 1 -0.5
v -0.2 1 -0.5
v -0.1 1 -0.5
v 0 1 -0.5
v 0.2 1 -0.5
v 0.5 1 -0.5

# faces
f 7/1/1 2/1/1 1/1/1
f 8/3/1 3/3/1 2/3/1
f 8/1/1 2/1/1 7/1/1
f 9/1/1 4/1/1 3/1/1
f 9/3/1 3/3/1 8/3/1
f 10/1/1 4/1/1 9/1/1
f 11/1/1 6/1/1 5/1/1
f 11/2/1 5/2/1 4/2/1
f 12/1/1 6/1/1 11/1/1
f 13/1/1 6/1/1 12/1/1
f 14/1/1 6/1/1 13/1/1
f 15/1/1 6/1/1 14/1/1
f 16/1/1 6/1/1 15/1/1
f 17/2/1 8/2/1 7/2/1
f 18/1/1 9/1/1 8/1/1
f 18/2/1 8/2/1 17/2/1
f 19/2/1 10/2/1 9/2/1
f 19/1/1 9/1/1 18/1/1
f 20/1/1 4/1/1 10/1/1
f 20/2/1 11/2/1 4/2/1
f 20/2/1 12/2/1 11/2/1
f 21/2/1 12/2/1 20/2/1
f 22/3/1 13/3/1 12/3/1
f 22/2/1 12/2/1 21/2/1
f 23/1/1 14/1/1 13/1/1
f 23/3/1 13/3/1 22/3/1
f 24/3/1 15/3/1 14/3/1
f 24/1/1 14/1/1 23/1/1
f 25/2/1 16/2/1 15/2/1
f 25/3/1 15/3/1 24/3/1
f 26/3/1 18/3/1 17/3/1
f 27/2/1 19/2/1 18/2/1
f 27/3/1 18/3/1 26/3/1
f 28/2/1 10/2/1 19/2/1
f 28/2/1 19/2/1 27/2/1
f 28/1/1 21/1/1 20/1/1
f 28/1/1 20/1/1 10/1/1
f 29/1/1 21/1/1 28/1/1
f 30/3/1 22/3/1 21/3/1
f 30/1/1 23/1/1 22/1/1
f 31/2/1 24/2/1 23/2/1
f 31/1/1 23/1/1 30/1/1
f 32/1/1 25/1/1 24/1/1
f 32/2/1 24/2/1 31/2/1
f 33/2/1 16/2/1 25/2/1
f 33/1/1 25/1/1 32/1/1
f 34/2/1 16/2/1 33/2/1
f 35/1/1 27/1/1 26/1/1
f 35/2/1 29/2/1 28/2/1
f 35/2/1 28/2/1 27/2/1
f 36/1/1 21/1/1 29/1/1
f 36/2/1 29/2/1 35/2/1
f 37/3/1 30/3/1 21/3/1
f 37/1/1 21/1/1 36/1/1
f 37/3/1 31/3/1 30/3/1
f 38/1/1 32/1/1 31/1/1
f 38/3/1 31/3/1 37/3/1
f 39/3/1 33/3/1 32/3/1
f 39/1/1 32/1/1 38/1/1
f 40/1/1 34/1/1 33/1/1
f 40/3/1 33/3/1 39/3/1
f 41/1/1 34/1/1 40/1/1
f 42/1/1 37/1/1 36/1/1
f 42/1/1 36/1/1 35/1/1
f 42/1/1 38/1/1 37/1/1
f 43/3/1 41/3/1 40/3/1
f 43/1/1 38/1/1 42/1/1
f 43/3/1 40/3/1 39/3/1
f 43/3/1 39/3/1 38/3/1
f 44/3/1 41/3/1 43/3/1
f 45/3/1 41/3/1 44/3/1
f 46/1/1 42/1/1 35/1/1
f 46/1/1 35/1/1 26/1/1
f 47/6/1 43/6/1 42/6/1
f 47/1/1 42/1/1 46/1/1
f 47/6/1 44/6/1 43/6/1
f 48/6/1 44/6/1 47/6/1
f 49/6/1 44/6/1 48/6/1
f 50/6/1 44/6/1 49/6/1
f 51/1/1 45/1/1 44/1/1
f 51/6/1 44/6/1 50/6/1
f 52/1/1 45/1/1 51/1/1
f 53/6/1 47/6/1 46/6/1
f 53/6/1 48/6/1 47/6/1
f 54/6/1 48/6/1 53/6/1
f 55/4/1 49/4/1 48/4/1
f 55/6/1 48/6/1 54/6/1
f 56/5/1 50/5/1 49/5/1
f 56/4/1 49/4/1 55/4/1
f 57/6/1 52/6/1 51/6/1
f 57/5/1 50/5/1 56/5/1
f 57/6/1 51/6/1 50/6/1
f 58/6/1 52/6/1 57/6/1
f 59/4/1 54/4/1 53/4/1
f 60/5/1 55/5/1 54/5/1
f 60/4/1 54/4/1 59/4/1
f 61/5/1 55/5/1 60/5/1
f 62/4/1 56/4/1 55/4/1
f 62/5/1 55/5/1 61/5/1
f 62/4/1 57/4/1 56/4/1
f 63/4/1 57/4/1 62/4/1
f 64/4/1 57/4/1 63/4/1
f 65/6/1 52/6/1 58/6/1
f 65/5/1 58/5/1 57/5/1
f 66/6/1 52/6/1 65/6/1
f 67/5/1 61/5/1 60/5/1
f 67/5/1 60/5/1 59/5/1
f 68/5/1 61/5/1 67/5/1
f 69/6/1 62/6/1 61/6/1
f 69/5/1 61/5/1 68/5/1
f 70/4/1 63/4/1 62/4/1
f 70/6/1 62/6/1 69/6/1
f 71/5/1 64/5/1 63/5/1
f 71/4/1 63/4/1 70/4/1
f 72/5/1 64/5/1 71/5/1
f 73/4/1 57/4/1 64/4/1
f 73/5/1 64/5/1 72/5/1
f 74/5/1 66/5/1 65/5/1
f 74/4/1 57/4/1 73/4/1
f 74/5/1 65/5/1 57/5/1
f 75/5/1 66/5/1 74/5/1
f 76/5/1 66/5/1 75/5/1
f 77/5/1 66/5/1 76/5/1
f 78/9/1 68/9/1 67/9/1
f 79/11/1 69/11/1 68/11/1
f 79/9/1 68/9/1 78/9/1
f 80/6/1 70/6/1 69/6/1
f 80/11/1 69/11/1 79/11/1
f 81/11/1 71/11/1 70/11/1
f 81/6/1 70/6/1 80/6/1
f 82/9/1 72/9/1 71/9/1
f 82/11/1 71/11/1 81/11/1
f 83/10/1 73/10/1 72/10/1
f 83/9/1 72/9/1 82/9/1
f 84/6/1 74/6/1 73/6/1
f 84/10/1 73/10/1 83/10/1
f 85/11/1 75/11/1 74/11/1
f 85/6/1 74/6/1 84/6/1
f 86/6/1 76/6/1 75/6/1
f 86/11/1 75/11/1 85/11/1
f 87/4/1 77/4/1 76/4/1
f 87/6/1 76/6/1 86/6/1
f 88/4/1 77/4/1 87/4/1
f 95/1/1 90/1/1 89/1/1
f 96/1/1 90/1/1 95/1/1
f 97/3/1 91/3/1 90/3/1
f 97/1/1 90/1/1 96/1/1
f 98/1/1 92/1/1 91/1/1
f 98/3/1 91/3/1 97/3/1
f 99/1/1 92/1/1 98/1/1
f 100/3/1 93/3/1 92/3/1
f 100/1/1 92/1/1 99/1/1
f 101/1/1 94/1/1 93/1/1
f 101/3/1 93/3/1 100/3/1
f 102/1/1 94/1/1 101/1/1
f 103/1/1 95/1/1 89/1/1
f 104/2/1 96/2/1 95/2/1
f 104/1/1 95/1/1 103/1/1
f 105/3/1 97/3/1 96/3/1
f 105/2/1 96/2/1 104/2/1
f 106/1/1 99/1/1 98/1/1
f 106/3/1 97/3/1 105/3/1
f 106/1/1 98/1/1 97/1/1
f 107/1/1 99/1/1 106/1/1
f 108/3/1 100/3/1 99/3/1
f 108/1/1 99/1/1 107/1/1
f 109/1/1 101/1/1 100/1/1
f 109/3/1 100/3/1 108/3/1
f 110/2/1 102/2/1 101/2/1
f 110/1/1 101/1/1 109/1/1
f 111/2/1 102/2/1 110/2/1
f 112/1/1 104/1/1 103/1/1
f 112/1/1 105/1/1 104/1/1
f 113/1/1 105/1/1 112/1/1
f 114/2/1 107/2/1 106/2/1
f 114/1/1 105/1/1 113/1/1
f 114/2/1 106/2/1 105/2/1
f 115/1/1 109/1/1 108/1/1
f 115/2/1 107/2/1 114/2/1
f 115/1/1 108/1/1 107/1/1
f 116/3/1 110/3/1 109/3/1
f 116/1/1 109/1/1 115/1/1
f 117/1/1 111/1/1 110/1/1
f 117/3/1 110/3/1 116/3/1
f 118/1/1 111/1/1 117/1/1
f 119/3/1 113/3/1 112/3/1
f 120/1/1 116/1/1 115/1/1
f 120/1/1 114/1/1 113/1/1
f 120/1/1 115/1/1 114/1/1
f 120/1/1 117/1/1 116/1/1
f 121/1/1 117/1/1 120/1/1
f 122/3/1 118/3/1 117/3/1
f 122/1/1 117/1/1 121/1/1
f 123/3/1 118/3/1 122/3/1
f 124/3/1 113/3/1 119/3/1
f 125/1/1 120/1/1 113/1/1
f 125/3/1 113/3/1 124/3/1
f 126/1/1 120/1/1 125/1/1
f 127/2/1 121/2/1 120/2/1
f 127/1/1 120/1/1 126/1/1
f 128/1/1 122/1/1 121/1/1
f 128/2/1 121/2/1 127/2/1
f 128/1/1 123/1/1 122/1/1
f 129/1/1 123/1/1 128/1/1
f 130/1/1 123/1/1 129/1/1
f 131/6/1 126/6/1 125/6/1
f 131/6/1 125/6/1 124/6/1
f 132/6/1 126/6/1 131/6/1
f 133/1/1 127/1/1 126/1/1
f 133/6/1 126/6/1 132/6/1
f 133/1/1 128/1/1 127/1/1
f 133/1/1 129/1/1 128/1/1
f 134/1/1 129/1/1 133/1/1
f 135/6/1 130/6/1 129/6/1
f 135/1/1 129/1/1 134/1/1
f 136/6/1 130/6/1 135/6/1
f 137/6/1 130/6/1 136/6/1
f 138/4/1 132/4/1 131/4/1
f 138/6/1 134/6/1 133/6/1
f 138/6/1 133/6/1 132/6/1
f 139/6/1 134/6/1 138/6/1
f 140/5/1 135/5/1 134/5/1
f 140/6/1 134/6/1 139/6/1
f 141/5/1 135/5/1 140/5/1
f 142/6/1 136/6/1 135/6/1
f 142/5/1 135/5/1 141/5/1
f 143/4/1 137/4/1 136/4/1
f 143/6/1 136/6/1 142/6/1
f 144/4/1 137/4/1 143/4/1
f 145/4/1 138/4/1 131/4/1
f 146/5/1 139/5/1 138/5/1
f 146/4/1 138/4/1 145/4/1
f 147/6/1 140/6/1 139/6/1
f 147/5/1 139/5/1 146/5/1
f 148/4/1 141/4/1 140/4/1
f 148/6/1 140/6/1 147/6/1
f 149/5/1 142/5/1 141/5/1
f 149/4/1 141/4/1 148/4/1
f 149/5/1 143/5/1 142/5/1
f 149/5/1 144/5/1 143/5/1
f 150/5/1 144/5/1 149/5/1
f 151/5/1 144/5/1 150/5/1
f 152/1/2 153/1/2 160/1/2
f 153/2/2 154/2/2 161/2/2
f 160/1/2 153/1/2 161/1/2
f 154/1/2 155/1/2 162/1/2
f 155/2/2 156/2/2 162/2/2
f 162/2/2 156/2/2 163/2/2
f 156/3/2 157/3/2 164/3/2
f 163/2/2 156/2/2 164/2/2
f 157/1/2 158/1/2 165/1/2
f 164/3/2 157/3/2 165/3/2
f 158/3/2 159/3/2 166/3/2
f 165/1/2 158/1/2 166/1/2
f 166/3/2 159/3/2 167/3/2
f 160/2/2 161/2/2 168/2/2
f 161/2/2 154/2/2 169/2/2
f 168/2/2 161/2/2 169/2/2
f 162/1/2 163/1/2 169/1/2
f 154/1/2 162/1/2 169/1/2
f 169/1/2 163/1/2 170/1/2
f 164/1/2 165/1/2 171/1/2
f 163/3/2 164/3/2 171/3/2
f 165/2/2 166/2/2 172/2/2
f 171/1/2 165/1/2 172/1/2
f 166/1/2 167/1/2 173/1/2
f 172/2/2 166/2/2 173/2/2
f 173/1/2 167/1/2 174/1/2
f 169/2/2 170/2/2 175/2/2
f 168/2/2 169/2/2 175/2/2
f 170/1/2 163/1/2 176/1/2
f 175/2/2 170/2/2 176/2/2
f 171/3/2 172/3/2 177/3/2
f 176/1/2 163/1/2 177/1/2
f 163/3/2 171/3/2 177/3/2
f 172/1/2 173/1/2 178/1/2
f 177/3/2 172/3/2 178/3/2
f 173/3/2 174/3/2 179/3/2
f 178/1/2 173/1/2 179/1/2
f 179/3/2 174/3/2 180/3/2
f 175/1/2 176/1/2 181/1/2
f 176/1/2 177/1/2 181/1/2
f 177/1/2 178/1/2 181/1/2
f 179/3/2 180/3/2 182/3/2
f 181/1/2 178/1/2 182/1/2
f 178/3/2 179/3/2 182/3/2
f 182/3/2 180/3/2 183/3/2
f 183/3/2 180/3/2 184/3/2
f 175/1/2 181/1/2 185/1/2
f 181/6/2 182/6/2 186/6/2
f 185/1/2 181/1/2 186/1/2
f 182/6/2 183/6/2 186/6/2
f 186/6/2 183/6/2 187/6/2
f 187/6/2 183/6/2 188/6/2
f 188/6/2 183/6/2 189/6/2
f 183/1/2 184/1/2 190/1/2
f 189/6/2 183/6/2 190/6/2
f 190/1/2 184/1/2 191/1/2
f 185/6/2 186/6/2 192/6/2
f 186/6/2 187/6/2 192/6/2
f 187/4/2 188/4/2 193/4/2
f 192/6/2 187/6/2 193/6/2
f 188/5/2 189/5/2 194/5/2
f 193/4/2 188/4/2 194/4/2
f 190/6/2 191/6/2 195/6/2
f 194/5/2 189/5/2 195/5/2
f 189/6/2 190/6/2 195/6/2
f 195/6/2 191/6/2 196/6/2
f 192/5/2 193/5/2 197/5/2
f 193/4/2 194/4/2 198/4/2
f 197/5/2 193/5/2 198/5/2
f 194/4/2 195/4/2 198/4/2
f 198/4/2 195/4/2 199/4/2
f 199/4/2 195/4/2 200/4/2
f 192/5/2 197/5/2 201/5/2
f 197/6/2 198/6/2 202/6/2
f 201/5/2 197/5/2 202/5/2
f 198/4/2 199/4/2 203/4/2
f 202/6/2 198/6/2 203/6/2
f 199/5/2 200/5/2 204/5/2
f 203/4/2 199/4/2 204/4/2
f 204/5/2 200/5/2 205/5/2
f 200/4/2 195/4/2 206/4/2
f 205/5/2 200/5/2 206/5/2
f 195/5/2 196/5/2 207/5/2
f 206/4/2 195/4/2 207/4/2
f 207/5/2 196/5/2 208/5/2
f 208/5/2 196/5/2 209/5/2
f 210/1/2 211/1/2 219/1/2
f 211/3/2 212/3/2 219/3/2
f 212/1/2 213/1/2 220/1/2
f 219/3/2 212/3/2 220/3/2
f 210/1/2 219/1/2 221/1/2
f 219/1/2 220/1/2 221/1/2
f 221/1/2 220/1/2 222/1/2
f 220/1/2 213/1/2 223/1/2
f 222/1/2 220/1/2 223/1/2
f 223/1/2 213/1/2 224/1/2
f 213/3/2 214/3/2 225/3/2
f 224/1/2 213/1/2 225/1/2
f 214/1/2 215/1/2 226/1/2
f 225/3/2 214/3/2 226/3/2
f 226/1/2 215/1/2 227/1/2
f 215/3/2 216/3/2 228/3/2
f 227/1/2 215/1/2 228/1/2
f 216/1/2 217/1/2 229/1/2
f 228/3/2 216/3/2 229/3/2
f 217/2/2 218/2/2 230/2/2
f 229/1/2 217/1/2 230/1/2
f 230/2/2 218/2/2 231/2/2
f 221/2/2 222/2/2 232/2/2
f 222/1/2 223/1/2 233/1/2
f 232/2/2 222/2/2 233/2/2
f 223/2/2 224/2/2 234/2/2
f 233/1/2 223/1/2 234/1/2
f 224/3/2 225/3/2 235/3/2
f 234/2/2 224/2/2 235/2/2
f 226/1/2 227/1/2 236/1/2
f 235/3/2 225/3/2 236/3/2
f 225/1/2 226/1/2 236/1/2
f 236/1/2 227/1/2 237/1/2
f 227/3/2 228/3/2 238/3/2
f 237/1/2 227/1/2 238/1/2
f 228/1/2 229/1/2 239/1/2
f 238/3/2 228/3/2 239/3/2
f 229/2/2 230/2/2 240/2/2
f 239/1/2 229/1/2 240/1/2
f 230/1/2 231/1/2 241/1/2
f 240/2/2 230/2/2 241/2/2
f 232/3/2 233/3/2 242/3/2
f 233/1/2 234/1/2 243/1/2
f 242/3/2 233/3/2 243/3/2
f 234/1/2 235/1/2 243/1/2
f 243/1/2 235/1/2 244/1/2
f 236/2/2 237/2/2 245/2/2
f 244/1/2 235/1/2 245/1/2
f 235/2/2 236/2/2 245/2/2
f 237/1/2 238/1/2 246/1/2
f 245/2/2 237/2/2 246/2/2
f 238/1/2 239/1/2 246/1/2
f 239/3/2 240/3/2 247/3/2
f 246/1/2 239/1/2 247/1/2
f 240/1/2 241/1/2 248/1/2
f 247/3/2 240/3/2 248/3/2
f 241/1/2 231/1/2 249/1/2
f 248/1/2 241/1/2 249/1/2
f 249/1/2 231/1/2 250/1/2
f 242/1/2 243/1/2 251/1/2
f 243/3/2 244/3/2 252/3/2
f 251/1/2 243/1/2 252/1/2
f 244/1/2 245/1/2 253/1/2
f 247/1/2 248/1/2 253/1/2
f 246/1/2 247/1/2 253/1/2
f 245/1/2 246/1/2 253/1/2
f 253/1/2 248/1/2 254/1/2
f 248/3/2 249/3/2 255/3/2
f 254/1/2 248/1/2 255/1/2
f 249/2/2 250/2/2 256/2/2
f 255/3/2 249/3/2 256/3/2
f 256/2/2 250/2/2 257/2/2
f 252/3/2 244/3/2 258/3/2
f 251/6/2 252/6/2 258/6/2
f 244/1/2 253/1/2 259/1/2
f 258/3/2 244/3/2 259/3/2
f 259/1/2 253/1/2 260/1/2
f 253/2/2 254/2/2 261/2/2
f 260/1/2 253/1/2 261/1/2
f 256/1/2 257/1/2 262/1/2
f 261/2/2 254/2/2 262/2/2
f 254/1/2 255/1/2 262/1/2
f 255/1/2 256/1/2 262/1/2
f 262/1/2 257/1/2 263/1/2
f 263/1/2 257/1/2 264/1/2
f 258/6/2 259/6/2 265/6/2
f 259/6/2 260/6/2 265/6/2
f 251/6/2 258/6/2 265/6/2
f 265/6/2 260/6/2 266/6/2
f 266/6/2 260/6/2 267/6/2
f 260/1/2 261/1/2 268/1/2
f 267/6/2 260/6/2 268/6/2
f 262/1/2 263/1/2 268/1/2
f 261/1/2 262/1/2 268/1/2
f 268/1/2 263/1/2 269/1/2
f 263/6/2 264/6/2 270/6/2
f 269/1/2 263/1/2 270/1/2
f 270/6/2 264/6/2 271/6/2
f 271/6/2 264/6/2 272/6/2
f 272/6/2 264/6/2 273/6/2
f 265/5/2 266/5/2 274/5/2
f 266/4/2 267/4/2 275/4/2
f 274/5/2 266/5/2 275/5/2
f 268/6/2 269/6/2 276/6/2
f 275/4/2 267/4/2 276/4/2
f 267/6/2 268/6/2 276/6/2
f 276/6/2 269/6/2 277/6/2
f 269/5/2 270/5/2 278/5/2
f 277/6/2 269/6/2 278/6/2
f 278/5/2 270/5/2 279/5/2
f 270/6/2 271/6/2 280/6/2
f 279/5/2 270/5/2 280/5/2
f 271/4/2 272/4/2 281/4/2
f 280/6/2 271/6/2 281/6/2
f 272/5/2 273/5/2 282/5/2
f 281/4/2 272/4/2 282/4/2
f 274/6/2 275/6/2 283/6/2
f 275/4/2 276/4/2 284/4/2
f 283/6/2 275/6/2 284/6/2
f 276/5/2 277/5/2 285/5/2
f 284/4/2 276/4/2 285/4/2
f 277/6/2 278/6/2 286/6/2
f 285/5/2 277/5/2 286/5/2
f 286/6/2 278/6/2 287/6/2
f 278/4/2 279/4/2 288/4/2
f 287/6/2 278/6/2 288/6/2
f 280/5/2 281/5/2 289/5/2
f 288/4/2 279/4/2 289/4/2
f 279/5/2 280/5/2 289/5/2
f 281/5/2 282/5/2 289/5/2
f 289/5/2 282/5/2 290/5/2
f 282/5/2 273/5/2 291/5/2
f 290/5/2 282/5/2 291/5/2
f 291/5/2 273/5/2 292/5/2
f 283/7/2 284/7/2 293/7/2
f 284/6/2 285/6/2 294/6/2
f 293/7/2 284/7/2 294/7/2
f 285/11/2 286/11/2 295/11/2
f 294/6/2 285/6/2 295/6/2
f 286/8/2 287/8/2 296/8/2
f 295/11/2 286/11/2 296/11/2
f 287/6/2 288/6/2 297/6/2
f 296/8/2 287/8/2 297/8/2
f 288/6/2 289/6/2 297/6/2
f 289/7/2 290/7/2 298/7/2
f 297/6/2 289/6/2 298/6/2
f 290/6/2 291/6/2 299/6/2
f 298/7/2 290/7/2 299/7/2
f 291/8/2 292/8/2 300/8/2
f 299/6/2 291/6/2 300/6/2
f 300/8/2 292/8/2 301/8/2
f 311/1/3 303/1/3 302/1/3
f 312/2/3 304/2/3 303/2/3
f 312/1/3 303/1/3 311/1/3
f 313/3/3 305/3/3 304/3/3
f 313/2/3 304/2/3 312/2/3
f 314/1/3 306/1/3 305/1/3
f 314/3/3 305/3/3 313/3/3
f 315/6/3 307/6/3 306/6/3
f 315/4/3 308/4/3 307/4/3
f 316/5/3 309/5/3 308/5/3
f 316/4/3 308/4/3 315/4/3
f 317/9/3 310/9/3 309/9/3
f 317/5/3 309/5/3 316/5/3
f 318/9/3 310/9/3 317/9/3
f 319/1/3 313/1/3 312/1/3
f 319/2/3 314/2/3 313/2/3
f 320/1/3 306/1/3 314/1/3
f 320/2/3 314/2/3 319/2/3
f 321/1/3 306/1/3 320/1/3
f 322/1/3 306/1/3 321/1/3
f 323/6/3 315/6/3 306/6/3
f 323/1/3 306/1/3 322/1/3
f 324/5/3 316/5/3 315/5/3
f 324/6/3 318/6/3 317/6/3
f 324/5/3 317/5/3 316/5/3
f 325/6/3 318/6/3 324/6/3
f 326/3/3 312/3/3 311/3/3
f 327/1/3 319/1/3 312/1/3
f 327/3/3 312/3/3 326/3/3
f 327/1/3 320/1/3 319/1/3
f 328/3/3 321/3/3 320/3/3
f 328/1/3 320/1/3 327/1/3
f 329/1/3 322/1/3 321/1/3
f 329/3/3 321/3/3 328/3/3
f 330/6/3 315/6/3 323/6/3
f 330/6/3 323/6/3 322/6/3
f 331/5/3 324/5/3 315/5/3
f 331/6/3 315/6/3 330/6/3
f 332/5/3 324/5/3 331/5/3
f 333/7/3 325/7/3 324/7/3
f 333/5/3 324/5/3 332/5/3
f 334/7/3 325/7/3 333/7/3
f 335/1/3 327/1/3 326/1/3
f 336/2/3 329/2/3 328/2/3
f 336/1/3 327/1/3 335/1/3
f 336/2/3 328/2/3 327/2/3
f 337/2/3 329/2/3 336/2/3
f 338/1/3 322/1/3 329/1/3
f 338/2/3 329/2/3 337/2/3
f 339/6/3 330/6/3 322/6/3
f 339/1/3 322/1/3 338/1/3
f 340/4/3 332/4/3 331/4/3
f 340/6/3 330/6/3 339/6/3
f 340/4/3 331/4/3 330/4/3
f 341/5/3 333/5/3 332/5/3
f 341/4/3 332/4/3 340/4/3
f 342/6/3 334/6/3 333/6/3
f 342/5/3 333/5/3 341/5/3
f 343/6/3 334/6/3 342/6/3
f 344/2/3 337/2/3 336/2/3
f 344/2/3 336/2/3 335/2/3
f 345/1/3 338/1/3 337/1/3
f 345/2/3 337/2/3 344/2/3
f 346/1/3 338/1/3 345/1/3
f 347/6/3 339/6/3 338/6/3
f 347/6/3 340/6/3 339/6/3
f 348/5/3 341/5/3 340/5/3
f 348/6/3 340/6/3 347/6/3
f 349/5/3 341/5/3 348/5/3
f 350/4/3 342/4/3 341/4/3
f 350/5/3 341/5/3 349/5/3
f 351/11/3 343/11/3 342/11/3
f 351/4/3 342/4/3 350/4/3
f 352/11/3 343/11/3 351/11/3
f 353/2/3 344/2/3 335/2/3
f 354/3/3 345/3/3 344/3/3
f 354/2/3 344/2/3 353/2/3
f 355/2/3 346/2/3 345/2/3
f 355/3/3 345/3/3 354/3/3
f 356/1/3 338/1/3 346/1/3
f 356/2/3 346/2/3 355/2/3
f 357/6/3 347/6/3 338/6/3
f 357/1/3 338/1/3 356/1/3
f 358/5/3 348/5/3 347/5/3
f 358/6/3 347/6/3 357/6/3
f 359/4/3 349/4/3 348/4/3
f 359/5/3 348/5/3 358/5/3
f 360/5/3 350/5/3 349/5/3
f 360/5/3 351/5/3 350/5/3
f 361/7/3 352/7/3 351/7/3
f 361/5/3 351/5/3 360/5/3
f 362/1/3 354/1/3 353/1/3
f 363/3/3 355/3/3 354/3/3
f 363/1/3 354/1/3 362/1/3
f 364/1/3 356/1/3 355/1/3
f 364/3/3 355/3/3 363/3/3
f 364/1/3 358/1/3 357/1/3
f 364/1/3 357/1/3 356/1/3
f 365/1/3 358/1/3 364/1/3
f 366/1/3 358/1/3 365/1/3
f 367/4/3 349/4/3 359/4/3
f 367/6/3 359/6/3 358/6/3
f 368/5/3 360/5/3 349/5/3
f 368/4/3 349/4/3 367/4/3
f 369/4/3 361/4/3 360/4/3
f 369/5/3 360/5/3 368/5/3
f 370/7/3 352/7/3 361/7/3
f 370/4/3 361/4/3 369/4/3
f 371/7/3 352/7/3 370/7/3
f 372/3/3 363/3/3 362/3/3
f 373/1/3 364/1/3 363/1/3
f 373/3/3 363/3/3 372/3/3
f 373/1/3 365/1/3 364/1/3
f 374/3/3 366/3/3 365/3/3
f 374/1/3 365/1/3 373/1/3
f 375/1/3 358/1/3 366/1/3
f 375/3/3 366/3/3 374/3/3
f 376/5/3 368/5/3 367/5/3
f 376/6/3 367/6/3 358/6/3
f 377/4/3 369/4/3 368/4/3
f 377/5/3 368/5/3 376/5/3
f 377/4/3 370/4/3 369/4/3
f 378/6/3 371/6/3 370/6/3
f 378/4/3 370/4/3 377/4/3
f 379/2/3 374/2/3 373/2/3
f 379/1/3 373/1/3 372/1/3
f 380/2/3 374/2/3 379/2/3
f 381/1/3 375/1/3 374/1/3
f 381/2/3 374/2/3 380/2/3
f 382/1/3 358/1/3 375/1/3
f 382/1/3 375/1/3 381/1/3
f 383/6/3 376/6/3 358/6/3
f 383/4/3 377/4/3 376/4/3
f 384/5/3 378/5/3 377/5/3
f 384/4/3 377/4/3 383/4/3
f 385/5/3 378/5/3 384/5/3
f 386/6/3 371/6/3 378/6/3
f 386/5/3 378/5/3 385/5/3
f 387/6/3 371/6/3 386/6/3
f 388/1/3 380/1/3 379/1/3
f 388/1/3 379/1/3 372/1/3
f 389/2/3 381/2/3 380/2/3
f 389/1/3 380/1/3 388/1/3
f 390/3/3 382/3/3 381/3/3
f 390/2/3 381/2/3 389/2/3
f 391/1/3 358/1/3 382/1/3
f 391/3/3 382/3/3 390/3/3
f 392/6/3 383/6/3 358/6/3
f 392/1/3 358/1/3 391/1/3
f 392/6/3 384/6/3 383/6/3
f 393/5/3 385/5/3 384/5/3
f 393/6/3 384/6/3 392/6/3
f 394/6/3 386/6/3 385/6/3
f 394/5/3 385/5/3 393/5/3
f 395/7/3 387/7/3 386/7/3
f 395/6/3 386/6/3 394/6/3
f 396/7/3 387/7/3 395/7/3
f 405/2/3 398/2/3 397/2/3
f 406/3/3 399/3/3 398/3/3
f 406/2/3 398/2/3 405/2/3
f 407/1/3 400/1/3 399/1/3
f 407/3/3 399/3/3 406/3/3
f 408/3/3 401/3/3 400/3/3
f 408/1/3 400/1/3 407/1/3
f 409/1/3 402/1/3 401/1/3
f 409/3/3 401/3/3 408/3/3
f 410/6/3 403/6/3 402/6/3
f 410/1/3 402/1/3 409/1/3
f 411/4/3 404/4/3 403/4/3
f 411/6/3 403/6/3 410/6/3
f 412/4/3 404/4/3 411/4/3
f 413/3/3 406/3/3 405/3/3
f 413/1/3 407/1/3 406/1/3
f 414/2/3 408/2/3 407/2/3
f 414/1/3 407/1/3 413/1/3
f 415/1/3 410/1/3 409/1/3
f 415/2/3 408/2/3 414/2/3
f 415/1/3 409/1/3 408/1/3
f 416/4/3 411/4/3 410/4/3
f 416/1/3 410/1/3 415/1/3
f 417/6/3 412/6/3 411/6/3
f 417/4/3 411/4/3 416/4/3
f 418/6/3 412/6/3 417/6/3
f 419/3/3 414/3/3 413/3/3
f 419/3/3 413/3/3 405/3/3
f 419/3/3 415/3/3 414/3/3
f 420/3/3 415/3/3 419/3/3
f 421/1/3 416/1/3 415/1/3
f 421/3/3 415/3/3 420/3/3
f 422/6/3 418/6/3 417/6/3
f 422/6/3 417/6/3 416/6/3
f 423/6/3 418/6/3 422/6/3
f 424/1/3 420/1/3 419/1/3
f 425/6/3 422/6/3 416/6/3
f 425/4/3 423/4/3 422/4/3
f 426/6/3 418/6/3 423/6/3
f 426/4/3 423/4/3 425/4/3
f 427/1/3 420/1/3 424/1/3
f 428/1/3 420/1/3 427/1/3
f 429/2/3 421/2/3 420/2/3
f 429/1/3 420/1/3 428/1/3
f 430/1/3 416/1/3 421/1/3
f 430/2/3 421/2/3 429/2/3
f 431/6/3 425/6/3 416/6/3
f 431/5/3 426/5/3 425/5/3
f 432/6/3 418/6/3 426/6/3
f 432/5/3 426/5/3 431/5/3
f 433/6/3 418/6/3 432/6/3
f 434/3/3 429/3/3 428/3/3
f 434/1/3 428/1/3 427/1/3
f 435/1/3 430/1/3 429/1/3
f 435/3/3 429/3/3 434/3/3
f 436/1/3 416/1/3 430/1/3
f 436/1/3 430/1/3 435/1/3
f 437/1/3 416/1/3 436/1/3
f 438/6/3 431/6/3 416/6/3
f 438/4/3 432/4/3 431/4/3
f 439/6/3 433/6/3 432/6/3
f 439/4/3 432/4/3 438/4/3
f 440/6/3 433/6/3 439/6/3
f 441/2/3 435/2/3 434/2/3
f 441/1/3 434/1/3 427/1/3
f 442/1/3 436/1/3 435/1/3
f 442/2/3 435/2/3 441/2/3
f 443/3/3 437/3/3 436/3/3
f 443/1/3 436/1/3 442/1/3
f 444/1/3 416/1/3 437/1/3
f 444/3/3 437/3/3 443/3/3
f 445/5/3 440/5/3 439/5/3
f 445/5/3 439/5/3 438/5/3
f 446/5/3 440/5/3 445/5/3
f 447/1/3 443/1/3 442/1/3
f 447/1/3 442/1/3 441/1/3
f 447/1/3 441/1/3 427/1/3
f 447/1/3 444/1/3 443/1/3
f 448/1/3 444/1/3 447/1/3
f 449/1/3 444/1/3 448/1/3
f 450/1/3 444/1/3 449/1/3
f 451/1/3 416/1/3 444/1/3
f 451/1/3 444/1/3 450/1/3
f 452/6/3 438/6/3 416/6/3
f 452/1/3 416/1/3 451/1/3
f 453/5/3 445/5/3 438/5/3
f 453/6/3 438/6/3 452/6/3
f 454/4/3 446/4/3 445/4/3
f 454/5/3 445/5/3 453/5/3
f 455/4/3 446/4/3 454/4/3
f 456/1/4 457/1/4 463/1/4
f 457/2/4 458/2/4 463/2/4
f 458/1/4 459/1/4 464/1/4
f 463/2/4 458/2/4 464/2/4
f 459/1/4 460/1/4 464/1/4
f 464/1/4 460/1/4 465/1/4
f 465/1/4 460/1/4 466/1/4
f 460/6/4 461/6/4 467/6/4
f 466/1/4 460/1/4 467/1/4
f 461/5/4 462/5/4 468/5/4
f 456/1/4 463/1/4 469/1/4
f 463/1/4 464/1/4 469/1/4
f 464/3/4 465/3/4 470/3/4
f 469/1/4 464/1/4 470/1/4
f 465/1/4 466/1/4 471/1/4
f 470/3/4 465/3/4 471/3/4
f 467/6/4 461/6/4 472/6/4
f 466/6/4 467/6/4 472/6/4
f 461/5/4 468/5/4 473/5/4
f 472/6/4 461/6/4 473/6/4
f 473/5/4 468/5/4 474/5/4
f 474/5/4 468/5/4 475/5/4
f 469/2/4 470/2/4 476/2/4
f 470/2/4 471/2/4 476/2/4
f 471/1/4 466/1/4 477/1/4
f 476/2/4 471/2/4 477/2/4
f 466/6/4 472/6/4 478/6/4
f 477/1/4 466/1/4 478/1/4
f 472/4/4 473/4/4 479/4/4
f 478/6/4 472/6/4 479/6/4
f 473/4/4 474/4/4 479/4/4
f 474/5/4 475/5/4 480/5/4
f 479/4/4 474/4/4 480/4/4
f 480/5/4 475/5/4 481/5/4
f 469/2/4 476/2/4 482/2/4
f 476/1/4 477/1/4 483/1/4
f 482/2/4 476/2/4 483/2/4
f 483/1/4 477/1/4 484/1/4
f 478/6/4 479/6/4 485/6/4
f 477/6/4 478/6/4 485/6/4
f 479/5/4 480/5/4 486/5/4
f 485/6/4 479/6/4 486/6/4
f 486/5/4 480/5/4 487/5/4
f 480/4/4 481/4/4 488/4/4
f 487/5/4 480/5/4 488/5/4
f 488/4/4 481/4/4 489/4/4
f 483/2/4 484/2/4 490/2/4
f 482/3/4 483/3/4 490/3/4
f 484/1/4 477/1/4 491/1/4
f 490/2/4 484/2/4 491/2/4
f 477/6/4 485/6/4 492/6/4
f 491/1/4 477/1/4 492/1/4
f 485/5/4 486/5/4 493/5/4
f 492/6/4 485/6/4 493/6/4
f 486/4/4 487/4/4 494/4/4
f 493/5/4 486/5/4 494/5/4
f 488/5/4 489/5/4 495/5/4
f 487/5/4 488/5/4 495/5/4
f 495/5/4 489/5/4 496/5/4
f 482/3/4 490/3/4 497/3/4
f 490/1/4 491/1/4 498/1/4
f 497/3/4 490/3/4 498/3/4
f 492/1/4 493/1/4 498/1/4
f 491/1/4 492/1/4 498/1/4
f 498/1/4 493/1/4 499/1/4
f 499/1/4 493/1/4 500/1/4
f 494/4/4 487/4/4 501/4/4
f 493/6/4 494/6/4 501/6/4
f 487/5/4 495/5/4 502/5/4
f 501/4/4 487/4/4 502/4/4
f 495/4/4 496/4/4 503/4/4
f 502/5/4 495/5/4 503/5/4
f 497/1/4 498/1/4 504/1/4
f 498/1/4 499/1/4 504/1/4
f 499/3/4 500/3/4 505/3/4
f 504/1/4 499/1/4 505/1/4
f 500/1/4 493/1/4 506/1/4
f 505/3/4 500/3/4 506/3/4
f 501/5/4 502/5/4 507/5/4
f 493/6/4 501/6/4 507/6/4
f 502/4/4 503/4/4 508/4/4
f 507/5/4 502/5/4 508/5/4
f 503/4/4 496/4/4 509/4/4
f 508/4/4 503/4/4 509/4/4
f 504/2/4 505/2/4 510/2/4
f 505/1/4 506/1/4 511/1/4
f 510/2/4 505/2/4 511/2/4
f 506/1/4 493/1/4 512/1/4
f 511/1/4 506/1/4 512/1/4
f 493/6/4 507/6/4 513/6/4
f 512/1/4 493/1/4 513/1/4
f 507/4/4 508/4/4 514/4/4
f 513/6/4 507/6/4 514/6/4
f 508/5/4 509/5/4 515/5/4
f 514/4/4 508/4/4 515/4/4
f 515/5/4 509/5/4 516/5/4
f 517/1/4 518/1/4 526/1/4
f 518/2/4 519/2/4 527/2/4
f 526/1/4 518/1/4 527/1/4
f 527/2/4 519/2/4 528/2/4
f 519/1/4 520/1/4 529/1/4
f 528/2/4 519/2/4 529/2/4
f 522/6/4 523/6/4 530/6/4
f 523/5/4 524/5/4 531/5/4
f 530/6/4 523/6/4 531/6/4
f 524/4/4 525/4/4 532/4/4
f 531/5/4 524/5/4 532/5/4
f 532/4/4 525/4/4 533/4/4
f 527/2/4 528/2/4 534/2/4
f 526/2/4 527/2/4 534/2/4
f 528/3/4 529/3/4 535/3/4
f 534/2/4 528/2/4 535/2/4
f 529/1/4 520/1/4 536/1/4
f 535/3/4 529/3/4 536/3/4
f 520/3/4 521/3/4 537/3/4
f 536/1/4 520/1/4 537/1/4
f 521/1/4 522/1/4 538/1/4
f 537/3/4 521/3/4 538/3/4
f 522/6/4 530/6/4 539/6/4
f 538/1/4 522/1/4 539/1/4
f 530/4/4 531/4/4 540/4/4
f 539/6/4 530/6/4 540/6/4
f 531/4/4 532/4/4 540/4/4
f 532/6/4 533/6/4 541/6/4
f 540/4/4 532/4/4 541/4/4
f 541/6/4 533/6/4 542/6/4
f 534/3/4 535/3/4 543/3/4
f 543/3/4 535/3/4 544/3/4
f 535/1/4 536/1/4 545/1/4
f 544/3/4 535/3/4 545/3/4
f 536/2/4 537/2/4 546/2/4
f 545/1/4 536/1/4 546/1/4
f 538/1/4 539/1/4 547/1/4
f 546/2/4 537/2/4 547/2/4
f 537/1/4 538/1/4 547/1/4
f 539/4/4 540/4/4 548/4/4
f 547/1/4 539/1/4 548/1/4
f 540/6/4 541/6/4 549/6/4
f 548/4/4 540/4/4 549/4/4
f 541/9/4 542/9/4 550/9/4
f 549/6/4 541/6/4 550/6/4
f 550/9/4 542/9/4 551/9/4
f 545/3/4 546/3/4 552/3/4
f 543/2/4 544/2/4 552/2/4
f 544/3/4 545/3/4 552/3/4
f 546/3/4 547/3/4 552/3/4
f 552/3/4 547/3/4 553/3/4
f 547/1/4 548/1/4 554/1/4
f 553/3/4 547/3/4 554/3/4
f 550/6/4 551/6/4 555/6/4
f 549/6/4 550/6/4 555/6/4
f 548/6/4 549/6/4 555/6/4
f 555/6/4 551/6/4 556/6/4
f 556/6/4 551/6/4 557/6/4
f 557/6/4 551/6/4 558/6/4
f 543/2/4 552/2/4 559/2/4
f 552/1/4 553/1/4 560/1/4
f 559/2/4 552/2/4 560/2/4
f 548/6/4 555/6/4 561/6/4
f 555/4/4 556/4/4 561/4/4
f 556/6/4 557/6/4 562/6/4
f 561/4/4 556/4/4 562/4/4
f 557/9/4 558/9/4 563/9/4
f 562/6/4 557/6/4 563/6/4
f 563/9/4 558/9/4 564/9/4
f 560/1/4 553/1/4 565/1/4
f 559/1/4 560/1/4 565/1/4
f 553/2/4 554/2/4 566/2/4
f 565/1/4 553/1/4 566/1/4
f 554/1/4 548/1/4 567/1/4
f 566/2/4 554/2/4 567/2/4
f 548/6/4 561/6/4 568/6/4
f 561/5/4 562/5/4 568/5/4
f 562/6/4 563/6/4 569/6/4
f 568/5/4 562/5/4 569/5/4
f 559/1/4 565/1/4 570/1/4
f 570/1/4 565/1/4 571/1/4
f 565/3/4 566/3/4 572/3/4
f 571/1/4 565/1/4 572/1/4
f 566/1/4 567/1/4 573/1/4
f 572/3/4 566/3/4 573/3/4
f 567/1/4 548/1/4 574/1/4
f 573/1/4 567/1/4 574/1/4
f 574/1/4 548/1/4 575/1/4
f 548/6/4 568/6/4 576/6/4
f 568/4/4 569/4/4 576/4/4
f 569/6/4 563/6/4 577/6/4
f 576/4/4 569/4/4 577/4/4
f 563/11/4 564/11/4 578/11/4
f 577/6/4 563/6/4 578/6/4
f 578/11/4 564/11/4 579/11/4
f 570/3/4 571/3/4 580/3/4
f 571/1/4 572/1/4 581/1/4
f 580/3/4 571/3/4 581/3/4
f 572/2/4 573/2/4 582/2/4
f 581/1/4 572/1/4 582/1/4
f 573/1/4 574/1/4 583/1/4
f 582/2/4 573/2/4 583/2/4
f 574/3/4 575/3/4 584/3/4
f 583/1/4 574/1/4 584/1/4
f 575/1/4 548/1/4 585/1/4
f 584/3/4 575/3/4 585/3/4
f 576/5/4 577/5/4 586/5/4
f 577/5/4 578/5/4 586/5/4
f 578/8/4 579/8/4 587/8/4
f 586/5/4 578/5/4 587/5/4
f 580/1/4 581/1/4 588/1/4
f 583/1/4 584/1/4 588/1/4
f 582/1/4 583/1/4 588/1/4
f 581/1/4 582/1/4 588/1/4
f 584/1/4 585/1/4 588/1/4
f 588/1/4 585/1/4 589/1/4
f 589/1/4 585/1/4 590/1/4
f 585/1/4 548/1/4 591/1/4
f 590/1/4 585/1/4 591/1/4
f 586/4/4 587/4/4 592/4/4
f 576/5/4 586/5/4 592/5/4
f 587/8/4 579/8/4 593/8/4
f 592/4/4 587/4/4 593/4/4
f 588/2/4 589/2/4 594/2/4
f 589/1/4 590/1/4 595/1/4
f 594/2/4 589/2/4 595/2/4
f 590/2/4 591/2/4 596/2/4
f 595/1/4 590/1/4 596/1/4
f 591/1/4 548/1/4 597/1/4
f 596/2/4 591/2/4 597/2/4
f 548/6/4 576/6/4 598/6/4
f 597/1/4 548/1/4 598/1/4
f 576/5/4 592/5/4 599/5/4
f 598/6/4 576/6/4 599/6/4
f 592/5/4 593/5/4 599/5/4
f 593/8/4 579/8/4 600/8/4
f 599/5/4 593/5/4 600/5/4
f 600/8/4 579/8/4 601/8/4
f 610/1/5 603/1/5 602/1/5
f 611/3/5 604/3/5 603/3/5
f 611/1/5 603/1/5 610/1/5
f 612/1/5 605/1/5 604/1/5
f 612/3/5 604/3/5 611/3/5
f 613/2/5 606/2/5 605/2/5
f 613/1/5 605/1/5 612/1/5
f 614/1/5 607/1/5 606/1/5
f 614/2/5 606/2/5 613/2/5
f 615/3/5 608/3/5 607/3/5
f 615/1/5 607/1/5 614/1/5
f 616/1/5 609/1/5 608/1/5
f 616/3/5 608/3/5 615/3/5
f 617/1/5 609/1/5 616/1/5
f 618/1/5 609/1/5 617/1/5
f 619/3/5 611/3/5 610/3/5
f 620/1/5 615/1/5 614/1/5
f 620/3/5 611/3/5 619/3/5
f 620/1/5 612/1/5 611/1/5
f 620/1/5 613/1/5 612/1/5
f 620/1/5 617/1/5 616/1/5
f 620/1/5 616/1/5 615/1/5
f 620/1/5 614/1/5 613/1/5
f 621/3/5 618/3/5 617/3/5
f 621/1/5 617/1/5 620/1/5
f 622/3/5 618/3/5 621/3/5
f 623/1/5 620/1/5 619/1/5
f 623/1/5 621/1/5 620/1/5
f 623/1/5 622/1/5 621/1/5
f 624/1/5 622/1/5 623/1/5
f 625/1/5 622/1/5 624/1/5
f 626/1/5 622/1/5 625/1/5
f 627/2/5 624/2/5 623/2/5
f 628/1/5 625/1/5 624/1/5
f 628/2/5 624/2/5 627/2/5
f 629/3/5 626/3/5 625/3/5
f 629/1/5 625/1/5 628/1/5
f 630/3/5 626/3/5 629/3/5
f 631/1/5 628/1/5 627/1/5
f 631/1/5 629/1/5 628/1/5
f 631/1/5 630/1/5 629/1/5
f 632/1/5 630/1/5 631/1/5
f 633/1/5 631/1/5 627/1/5
f 634/1/5 631/1/5 633/1/5
f 635/3/5 632/3/5 631/3/5
f 635/1/5 631/1/5 634/1/5
f 636/3/5 632/3/5 635/3/5
f 637/1/5 633/1/5 627/1/5
f 638/1/5 633/1/5 637/1/5
f 639/1/5 633/1/5 638/1/5
f 640/2/5 634/2/5 633/2/5
f 640/1/5 633/1/5 639/1/5
f 641/1/5 635/1/5 634/1/5
f 641/2/5 634/2/5 640/2/5
f 641/1/5 636/1/5 635/1/5
f 642/1/5 636/1/5 641/1/5
f 643/1/5 636/1/5 642/1/5
f 644/1/5 636/1/5 643/1/5
f 645/1/5 636/1/5 644/1/5
f 646/1/5 637/1/5 627/1/5
f 647/2/5 638/2/5 637/2/5
f 647/1/5 637/1/5 646/1/5
f 648/3/5 639/3/5 638/3/5
f 648/2/5 638/2/5 647/2/5
f 649/2/5 640/2/5 639/2/5
f 649/3/5 639/3/5 648/3/5
f 650/1/5 641/1/5 640/1/5
f 650/2/5 640/2/5 649/2/5
f 650/1/5 642/1/5 641/1/5
f 651/3/5 643/3/5 642/3/5
f 651/1/5 642/1/5 650/1/5
f 652/1/5 644/1/5 643/1/5
f 652/3/5 643/3/5 651/3/5
f 653/2/5 645/2/5 644/2/5
f 653/1/5 644/1/5 652/1/5
f 654/2/5 645/2/5 653/2/5
f 663/9/5 656/9/5 655/9/5
f 664/6/5 657/6/5 656/6/5
f 664/9/5 656/9/5 663/9/5
f 665/9/5 658/9/5 657/9/5
f 665/6/5 657/6/5 664/6/5
f 665/9/5 659/9/5 658/9/5
f 666/9/5 659/9/5 665/9/5
f 667/6/5 662/6/5 661/6/5
f 667/9/5 659/9/5 666/9/5
f 667/6/5 661/6/5 660/6/5
f 667/6/5 660/6/5 659/6/5
f 668/6/5 662/6/5 667/6/5
f 669/6/5 662/6/5 668/6/5
f 670/11/5 664/11/5 663/11/5
f 671/9/5 665/9/5 664/9/5
f 671/11/5 664/11/5 670/11/5
f 672/11/5 666/11/5 665/11/5
f 672/9/5 665/9/5 671/9/5
f 673/6/5 667/6/5 666/6/5
f 673/11/5 666/11/5 672/11/5
f 673/6/5 668/6/5 667/6/5
f 674/6/5 668/6/5 673/6/5
f 675/6/5 668/6/5 674/6/5
f 676/8/5 669/8/5 668/8/5
f 676/6/5 668/6/5 675/6/5
f 677/8/5 669/8/5 676/8/5
f 678/9/5 671/9/5 670/9/5
f 679/11/5 672/11/5 671/11/5
f 679/9/5 671/9/5 678/9/5
f 680/7/5 673/7/5 672/7/5
f 680/11/5 672/11/5 679/11/5
f 680/7/5 674/7/5 673/7/5
f 681/7/5 674/7/5 680/7/5
f 682/10/5 675/10/5 674/10/5
f 682/7/5 674/7/5 681/7/5
f 683/10/5 675/10/5 682/10/5
f 684/6/5 677/6/5 676/6/5
f 684/10/5 675/10/5 683/10/5
f 684/6/5 676/6/5 675/6/5
f 685/6/5 677/6/5 684/6/5
f 686/6/5 679/6/5 678/6/5
f 687/7/5 681/7/5 680/7/5
f 687/6/5 679/6/5 686/6/5
f 687/7/5 680/7/5 679/7/5
f 688/11/5 683/11/5 682/11/5
f 688/7/5 681/7/5 687/7/5
f 688/11/5 682/11/5 681/11/5
f 689/10/5 684/10/5 683/10/5
f 689/11/5 683/11/5 688/11/5
f 689/10/5 685/10/5 684/10/5
f 690/6/5 677/6/5 685/6/5
f 690/10/5 685/10/5 689/10/5
f 691/6/5 677/6/5 690/6/5
f 692/9/5 687/9/5 686/9/5
f 693/11/5 688/11/5 687/11/5
f 693/9/5 687/9/5 692/9/5
f 694/11/5 688/11/5 693/11/5
f 695/9/5 689/9/5 688/9/5
f 695/11/5 688/11/5 694/11/5
f 696/10/5 690/10/5 689/10/5
f 696/9/5 689/9/5 695/9/5
f 697/10/5 690/10/5 696/10/5
f 698/8/5 691/8/5 690/8/5
f 698/10/5 690/10/5 697/10/5
f 699/8/5 691/8/5 698/8/5
f 700/10/5 693/10/5 692/10/5
f 701/9/5 694/9/5 693/9/5
f 701/10/5 693/10/5 700/10/5
f 702/6/5 695/6/5 694/6/5
f 702/9/5 694/9/5 701/9/5
f 702/6/5 696/6/5 695/6/5
f 703/6/5 696/6/5 702/6/5
f 704/6/5 696/6/5 703/6/5
f 705/9/5 697/9/5 696/9/5
f 705/6/5 696/6/5 704/6/5
f 706/8/5 698/8/5 697/8/5
f 706/9/5 697/9/5 705/9/5
f 707/6/5 701/6/5 700/6/5
f 708/8/5 702/8/5 701/8/5
f 708/6/5 701/6/5 707/6/5
f 708/8/5 703/8/5 702/8/5
f 709/8/5 703/8/5 708/8/5
f 710/9/5 704/9/5 703/9/5
f 710/8/5 703/8/5 709/8/5
f 711/6/5 705/6/5 704/6/5
f 711/9/5 704/9/5 710/9/5
f 711/6/5 706/6/5 705/6/5
f 712/6/5 706/6/5 711/6/5
f 713/8/5 698/8/5 706/8/5
f 713/6/5 706/6/5 712/6/5
f 714/11/5 699/11/5 698/11/5
f 714/8/5 698/8/5 713/8/5
f 715/11/5 699/11/5 714/11/5
f 716/11/5 709/11/5 708/11/5
f 716/11/5 708/11/5 707/11/5
f 717/11/5 709/11/5 716/11/5
f 718/8/5 712/8/5 711/8/5
f 718/11/5 709/11/5 717/11/5
f 718/8/5 710/8/5 709/8/5
f 718/8/5 711/8/5 710/8/5
f 719/9/5 713/9/5 712/9/5
f 719/8/5 712/8/5 718/8/5
f 720/11/5 714/11/5 713/11/5
f 720/9/5 713/9/5 719/9/5
f 721/6/5 715/6/5 714/6/5
f 721/11/5 714/11/5 720/11/5
f 722/6/5 715/6/5 721/6/5
f 723/1/6 724/1/6 729/1/6
f 727/1/6 728/1/6 729/1/6
f 726/1/6 727/1/6 729/1/6
f 725/1/6 726/1/6 729/1/6
f 724/1/6 725/1/6 729/1/6
f 729/1/6 728/1/6 730/1/6
f 730/1/6 728/1/6 731/1/6
f 731/1/6 728/1/6 732/1/6
f 731/1/6 732/1/6 733/1/6
f 731/1/6 733/1/6 734/1/6
f 734/1/6 733/1/6 735/1/6
f 735/1/6 733/1/6 736/1/6
f 735/1/6 736/1/6 737/1/6
f 737/1/6 736/1/6 738/1/6
f 738/1/6 736/1/6 739/1/6
f 739/1/6 736/1/6 740/1/6
f 737/1/6 738/1/6 741/1/6
f 741/1/6 738/1/6 742/1/6
f 742/1/6 738/1/6 743/1/6
f 738/2/6 739/2/6 744/2/6
f 743/1/6 738/1/6 744/1/6
f 739/1/6 740/1/6 745/1/6
f 744/2/6 739/2/6 745/2/6
f 745/1/6 740/1/6 746/1/6
f 747/9/6 748/9/6 756/9/6
f 748/6/6 749/6/6 757/6/6
f 756/9/6 748/9/6 757/9/6
f 749/7/6 750/7/6 758/7/6
f 757/6/6 749/6/6 758/6/6
f 750/6/6 751/6/6 759/6/6
f 758/7/6 750/7/6 759/7/6
f 751/11/6 752/11/6 760/11/6
f 759/6/6 751/6/6 760/6/6
f 752/7/6 753/7/6 761/7/6
f 760/11/6 752/11/6 761/11/6
f 753/6/6 754/6/6 762/6/6
f 761/7/6 753/7/6 762/7/6
f 754/7/6 755/7/6 763/7/6
f 762/6/6 754/6/6 763/6/6
f 763/7/6 755/7/6 764/7/6
f 756/11/6 757/11/6 765/11/6
f 757/9/6 758/9/6 766/9/6
f 765/11/6 757/11/6 766/11/6
f 758/6/6 759/6/6 767/6/6
f 766/9/6 758/9/6 767/9/6
f 759/9/6 760/9/6 768/9/6
f 767/6/6 759/6/6 768/6/6
f 760/9/6 761/9/6 768/9/6
f 768/9/6 761/9/6 769/9/6
f 761/6/6 762/6/6 770/6/6
f 769/9/6 761/9/6 770/9/6
f 763/6/6 764/6/6 770/6/6
f 762/6/6 763/6/6 770/6/6
f 770/6/6 764/6/6 771/6/6
f 771/6/6 764/6/6 772/6/6
f 772/6/6 764/6/6 773/6/6
f 765/6/6 766/6/6 774/6/6
f 766/11/6 767/11/6 775/11/6
f 774/6/6 766/6/6 775/6/6
f 767/9/6 768/9/6 776/9/6
f 775/11/6 767/11/6 776/11/6
f 768/11/6 769/11/6 777/11/6
f 776/9/6 768/9/6 777/9/6
f 769/6/6 770/6/6 778/6/6
f 777/11/6 769/11/6 778/11/6
f 770/6/6 771/6/6 778/6/6
f 778/6/6 771/6/6 779/6/6
f 779/6/6 771/6/6 780/6/6
f 771/8/6 772/8/6 781/8/6
f 780/6/6 771/6/6 781/6/6
f 772/11/6 773/11/6 782/11/6
f 781/8/6 772/8/6 782/8/6
f 782/11/6 773/11/6 783/11/6
f 774/11/6 775/11/6 784/11/6
f 775/9/6 776/9/6 785/9/6
f 784/11/6 775/11/6 785/11/6
f 776/11/6 777/11/6 786/11/6
f 785/9/6 776/9/6 786/9/6
f 777/7/6 778/7/6 787/7/6
f 786/11/6 777/11/6 787/11/6
f 778/7/6 779/7/6 787/7/6
f 787/7/6 779/7/6 788/7/6
f 779/10/6 780/10/6 789/10/6
f 788/7/6 779/7/6 789/7/6
f 789/10/6 780/10/6 790/10/6
f 780/6/6 781/6/6 791/6/6
f 790/10/6 780/10/6 791/10/6
f 781/6/6 782/6/6 791/6/6
f 791/6/6 782/6/6 792/6/6
f 782/8/6 783/8/6 793/8/6
f 792/6/6 782/6/6 793/6/6
f 793/8/6 783/8/6 794/8/6
f 784/9/6 785/9/6 795/9/6
f 785/6/6 786/6/6 796/6/6
f 795/9/6 785/9/6 796/9/6
f 787/7/6 788/7/6 797/7/6
f 796/6/6 786/6/6 797/6/6
f 786/7/6 787/7/6 797/7/6
f 789/11/6 790/11/6 798/11/6
f 797/7/6 788/7/6 798/7/6
f 788/11/6 789/11/6 798/11/6
f 791/10/6 792/10/6 799/10/6
f 798/11/6 790/11/6 799/11/6
f 790/10/6 791/10/6 799/10/6
f 792/6/6 793/6/6 800/6/6
f 799/10/6 792/10/6 800/10/6
f 793/6/6 794/6/6 800/6/6
f 800/6/6 794/6/6 801/6/6
f 795/10/6 796/10/6 802/10/6
f 796/9/6 797/9/6 803/9/6
f 802/10/6 796/10/6 803/10/6
f 797/11/6 798/11/6 804/11/6
f 803/9/6 797/9/6 804/9/6
f 804/11/6 798/11/6 805/11/6
f 798/9/6 799/9/6 806/9/6
f 805/11/6 798/11/6 806/11/6
f 799/10/6 800/10/6 807/10/6
f 806/9/6 799/9/6 807/9/6
f 807/10/6 800/10/6 808/10/6
f 800/8/6 801/8/6 809/8/6
f 808/10/6 800/10/6 809/10/6
f 801/6/6 794/6/6 810/6/6
f 809/8/6 801/8/6 810/8/6
f 810/6/6 794/6/6 811/6/6
f 802/6/6 803/6/6 812/6/6
f 803/10/6 804/10/6 813/10/6
f 812/6/6 803/6/6 813/6/6
f 804/9/6 805/9/6 814/9/6
f 813/10/6 804/10/6 814/10/6
f 805/6/6 806/6/6 815/6/6
f 814/9/6 805/9/6 815/9/6
f 806/6/6 807/6/6 815/6/6
f 815/6/6 807/6/6 816/6/6
f 816/6/6 807/6/6 817/6/6
f 807/9/6 808/9/6 818/9/6
f 817/6/6 807/6/6 818/6/6
f 808/8/6 809/8/6 819/8/6
f 818/9/6 808/9/6 819/9/6
f 810/7/6 811/7/6 820/7/6
f 809/11/6 810/11/6 820/11/6
f 820/7/6 811/7/6 821/7/6
f 812/11/6 813/11/6 822/11/6
f 813/6/6 814/6/6 823/6/6
f 822/11/6 813/11/6 823/11/6
f 814/8/6 815/8/6 824/8/6
f 823/6/6 814/6/6 824/6/6
f 815/8/6 816/8/6 824/8/6
f 824/8/6 816/8/6 825/8/6
f 816/9/6 817/9/6 826/9/6
f 825/8/6 816/8/6 826/8/6
f 817/6/6 818/6/6 827/6/6
f 826/9/6 817/9/6 827/9/6
f 818/6/6 819/6/6 827/6/6
f 827/6/6 819/6/6 828/6/6
f 819/8/6 809/8/6 829/8/6
f 828/6/6 819/6/6 829/6/6
f 809/11/6 820/11/6 830/11/6
f 829/8/6 809/8/6 830/8/6
f 820/6/6 821/6/6 831/6/6
f 830/11/6 820/11/6 831/11/6
f 822/6/6 823/6/6 832/6/6
f 824/11/6 825/11/6 833/11/6
f 832/6/6 823/6/6 833/6/6
f 823/11/6 824/11/6 833/11/6
f 833/11/6 825/11/6 834/11/6
f 825/8/6 826/8/6 835/8/6
f 834/11/6 825/11/6 835/11/6
f 827/8/6 828/8/6 835/8/6
f 826/8/6 827/8/6 835/8/6
f 835/8/6 828/8/6 836/8/6
f 836/8/6 828/8/6 837/8/6
f 828/9/6 829/9/6 838/9/6
f 837/8/6 828/8/6 838/8/6
f 829/11/6 830/11/6 839/11/6
f 838/9/6 829/9/6 839/9/6
f 830/6/6 831/6/6 840/6/6
f 839/11/6 830/11/6 840/11/6
f 831/6/6 821/6/6 841/6/6
f 840/6/6 831/6/6 841/6/6
f 832/4/6 833/4/6 842/4/6
f 833/6/6 834/6/6 843/6/6
f 842/4/6 833/4/6 843/4/6
f 834/9/6 835/9/6 844/9/6
f 843/6/6 834/6/6 844/6/6
f 835/6/6 836/6/6 845/6/6
f 844/9/6 835/9/6 845/9/6
f 836/9/6 837/9/6 846/9/6
f 845/6/6 836/6/6 846/6/6
f 838/11/6 839/11/6 847/11/6
f 846/9/6 837/9/6 847/9/6
f 837/11/6 838/11/6 847/11/6
f 839/8/6 840/8/6 848/8/6
f 847/11/6 839/11/6 848/11/6
f 840/8/6 841/8/6 848/8/6
f 848/8/6 841/8/6 849/8/6
