# MagicaVoxel @ Ephtracy

# group
o 

# material
mtllib chr_knight.mtl
usemtl palette

# normals
vn -1 0 0
vn 1 0 0
vn 0 0 1
vn 0 0 -1
vn 0 -1 0
vn 0 1 0

# texcoords
vt 0.0332031 0.5
vt 0.0644531 0.5
vt 0.634766 0.5
vt 0.958984 0.5
vt 0.982422 0.5
vt 0.986328 0.5
vt 0.990234 0.5
vt 0.994141 0.5

# verts
v -0.5 0 0
v -0.5 0 -0.4
v -0.5 0.1 0
v -0.5 0.1 -0.2
v -0.5 0.1 -0.4
v -0.5 0.4 -0.2
v -0.5 0.4 -0.4
v -0.5 0.8 -0.2
v -0.5 0.8 -0.4
v -0.4 0.8 -0.2
v -0.4 0.8 -0.4
v -0.4 0.9 -0.2
v -0.4 0.9 -0.4
v -0.3 0.9 -0.2
v -0.3 0.9 -0.4
v -0.3 1 -0.2
v -0.3 1 -0.4
v -0.3 1.4 -0.3
v -0.3 1.4 -0.4
v -0.3 1.7 -0.3
v -0.3 1.7 -0.4
v -0.2 1.4 -0.2
v -0.2 1.4 -0.3
v -0.2 1.4 -0.4
v -0.2 1.4 -0.5
v -0.2 1.5 -0.1
v -0.2 1.5 -0.2
v -0.2 1.5 -0.3
v -0.2 1.6 -0.1
v -0.2 1.6 -0.2
v -0.2 1.7 -0.2
v -0.2 1.7 -0.3
v -0.2 1.7 -0.4
v -0.2 1.8 -0.3
v -0.2 1.8 -0.5
v -0.1 1 -0.2
v -0.1 1 -0.4
v -0.1 1.1 0.5
v -0.1 1.1 -0.2
v -0.1 1.2 -0.2
v -0.1 1.2 -0.4
v -0.1 1.4 0.4
v -0.1 1.4 -0.1
v -0.1 1.4 -0.2
v -0.1 1.4 -0.4
v -0.1 1.4 -0.5
v -0.1 1.4 -0.6
v -0.1 1.5 0.5
v -0.1 1.5 0.4
v -0.1 1.5 -0.1
v -0.1 1.5 -0.2
v -0.1 1.7 -0.2
v -0.1 1.7 -0.3
v -0.1 1.8 -0.2
v -0.1 1.8 -0.3
v -0.1 1.8 -0.5
v -0.1 1.8 -0.6
v -0.1 1.9 -0.3
v -0.1 1.9 -0.5
v 0 0.8 -0.4
v 0 0.8 -0.5
v 0 0.8 -0.6
v 0 0.9 -0.4
v 0 0.9 -0.5
v 0 0.9 -0.6
v 0 0.9 -0.7
v 0 1 -0.4
v 0 1 -0.5
v 0 1 -0.7
v 0 1 -0.8
v 0 1.1 -0.5
v 0 1.1 -0.6
v 0 1.1 -0.7
v 0 1.1 -0.8
v 0 1.1 -0.9
v 0 1.2 -0.6
v 0 1.2 -0.7
v 0 1.2 -0.9
v 0 1.2 -1
v 0 1.3 -0.7
v 0 1.3 -0.8
v 0 1.3 -0.9
v 0 1.3 -1
v 0 1.3 -1.1
v 0 1.4 -0.8
v 0 1.4 -0.9
v 0 1.4 -1
v 0 1.4 -1.1
v 0 1.5 -0.9
v 0 1.5 -1
v 0 1.5 -1.1
v 0 1.6 -0.1
v 0 1.6 -0.2
v 0 1.7 -0.1
v 0 1.7 -0.2
v 0.1 1.2 0.5
v 0.1 1.2 -0.2
v 0.1 1.3 0.5
v 0.1 1.3 -0.1
v 0.1 1.4 0.5
v 0.1 1.4 0.4
v 0.1 1.4 -0.1
v 0.1 1.4 -0.2
v 0.1 1.5 0.5
v 0.1 1.5 0.4
v 0.3 0.7 -0.2
v 0.3 0.7 -0.4
v 0.3 0.8 -0.2
v 0.3 0.8 -0.4
v 0.4 0 0
v 0.4 0 -0.4
v 0.4 0.1 0
v 0.4 0.1 -0.2
v 0.4 0.1 -0.4
v 0.4 0.4 -0.2
v 0.4 0.4 -0.4
v 0.4 0.7 -0.2
v 0.4 0.7 -0.4
v -0.3 0 0
v -0.3 0 -0.4
v -0.3 0.1 0
v -0.3 0.1 -0.2
v -0.3 0.1 -0.4
v -0.3 0.4 -0.2
v -0.3 0.4 -0.4
v -0.3 0.7 -0.2
v -0.3 0.7 -0.4
v -0.2 0.7 -0.2
v -0.2 0.7 -0.4
v -0.2 0.8 -0.2
v -0.2 0.8 -0.4
v -0.1 1.5 -0.1
v -0.1 1.5 -0.2
v -0.1 1.6 -0.1
v -0.1 1.6 -0.2
v 0 1.2 0.5
v 0 1.2 -0.2
v 0 1.3 0.5
v 0 1.3 -0.1
v 0 1.4 0.5
v 0 1.4 0.4
v 0 1.4 -0.1
v 0 1.4 -0.2
v 0 1.5 0.5
v 0 1.5 0.4
v 0.1 0.8 -0.4
v 0.1 0.8 -0.5
v 0.1 0.8 -0.6
v 0.1 0.9 -0.4
v 0.1 0.9 -0.5
v 0.1 0.9 -0.6
v 0.1 0.9 -0.7
v 0.1 1 -0.4
v 0.1 1 -0.5
v 0.1 1 -0.7
v 0.1 1 -0.8
v 0.1 1.1 -0.5
v 0.1 1.1 -0.6
v 0.1 1.1 -0.7
v 0.1 1.1 -0.8
v 0.1 1.1 -0.9
v 0.1 1.2 -0.6
v 0.1 1.2 -0.7
v 0.1 1.2 -0.9
v 0.1 1.2 -1
v 0.1 1.3 -0.7
v 0.1 1.3 -0.8
v 0.1 1.3 -0.9
v 0.1 1.3 -1
v 0.1 1.3 -1.1
v 0.1 1.4 -0.8
v 0.1 1.4 -0.9
v 0.1 1.4 -1
v 0.1 1.4 -1.1
v 0.1 1.5 -0.9
v 0.1 1.5 -1
v 0.1 1.5 -1.1
v 0.1 1.6 -0.1
v 0.1 1.6 -0.2
v 0.1 1.7 -0.1
v 0.1 1.7 -0.2
v 0.2 1 -0.2
v 0.2 1 -0.4
v 0.2 1.1 0.5
v 0.2 1.1 -0.2
v 0.2 1.2 -0.2
v 0.2 1.2 -0.4
v 0.2 1.4 0.4
v 0.2 1.4 -0.1
v 0.2 1.4 -0.2
v 0.2 1.4 -0.4
v 0.2 1.4 -0.5
v 0.2 1.4 -0.6
v 0.2 1.5 0.5
v 0.2 1.5 0.4
v 0.2 1.5 -0.1
v 0.2 1.5 -0.2
v 0.2 1.5 -0.5
v 0.2 1.5 -0.6
v 0.2 1.7 -0.2
v 0.2 1.7 -0.3
v 0.2 1.7 -0.5
v 0.2 1.7 -0.6
v 0.2 1.8 -0.2
v 0.2 1.8 -0.3
v 0.2 1.8 -0.4
v 0.2 1.8 -0.5
v 0.2 1.8 -0.6
v 0.2 1.9 -0.4
v 0.2 1.9 -0.5
v 0.3 1.4 -0.2
v 0.3 1.4 -0.3
v 0.3 1.5 -0.2
v 0.3 1.5 -0.3
v 0.3 1.5 -0.5
v 0.3 1.5 -0.6
v 0.3 1.7 -0.2
v 0.3 1.7 -0.3
v 0.3 1.7 -0.5
v 0.3 1.7 -0.6
v 0.3 1.8 -0.4
v 0.3 1.8 -0.5
v 0.3 1.9 -0.3
v 0.3 1.9 -0.4
v 0.4 0.9 -0.2
v 0.4 0.9 -0.4
v 0.4 1 -0.2
v 0.4 1 -0.4
v 0.4 1.4 -0.3
v 0.4 1.4 -0.5
v 0.4 1.7 -0.3
v 0.4 1.7 -0.5
v 0.5 0.8 -0.2
v 0.5 0.8 -0.4
v 0.5 0.9 -0.2
v 0.5 0.9 -0.4
v 0.6 0 0
v 0.6 0 -0.4
v 0.6 0.1 0
v 0.6 0.1 -0.2
v 0.6 0.1 -0.4
v 0.6 0.4 -0.2
v 0.6 0.4 -0.4
v 0.6 0.8 -0.2
v 0.6 0.8 -0.4
v -0.1 1.1 0.5
v -0.1 1.5 0.5
v 0 1.2 0.5
v 0 1.3 0.5
v 0 1.4 0.5
v 0 1.5 0.5
v 0.1 1.2 0.5
v 0.1 1.3 0.5
v 0.1 1.4 0.5
v 0.1 1.5 0.5
v 0.2 1.1 0.5
v 0.2 1.5 0.5
v -0.5 0 0
v -0.5 0.1 0
v -0.3 0 0
v -0.3 0.1 0
v 0.4 0 0
v 0.4 0.1 0
v 0.6 0 0
v 0.6 0.1 0
v -0.2 1.5 -0.1
v -0.2 1.6 -0.1
v -0.1 1.4 -0.1
v -0.1 1.5 -0.1
v -0.1 1.6 -0.1
v 0 1.6 -0.1
v 0 1.7 -0.1
v 0.1 1.6 -0.1
v 0.1 1.7 -0.1
v 0.2 1.4 -0.1
v 0.2 1.5 -0.1
v -0.5 0.1 -0.2
v -0.5 0.4 -0.2
v -0.5 0.8 -0.2
v -0.4 0.8 -0.2
v -0.4 0.9 -0.2
v -0.3 0.1 -0.2
v -0.3 0.4 -0.2
v -0.3 0.7 -0.2
v -0.3 0.9 -0.2
v -0.3 1 -0.2
v -0.2 0.7 -0.2
v -0.2 0.8 -0.2
v -0.2 1.4 -0.2
v -0.2 1.5 -0.2
v -0.2 1.6 -0.2
v -0.2 1.7 -0.2
v -0.1 1 -0.2
v -0.1 1.1 -0.2
v -0.1 1.4 -0.2
v -0.1 1.5 -0.2
v -0.1 1.6 -0.2
v -0.1 1.7 -0.2
v -0.1 1.8 -0.2
v 0 1.2 -0.2
v 0 1.4 -0.2
v 0 1.5 -0.2
v 0 1.6 -0.2
v 0 1.7 -0.2
v 0.1 1.2 -0.2
v 0.1 1.4 -0.2
v 0.1 1.6 -0.2
v 0.1 1.7 -0.2
v 0.2 1 -0.2
v 0.2 1.1 -0.2
v 0.2 1.4 -0.2
v 0.2 1.5 -0.2
v 0.2 1.6 -0.2
v 0.2 1.7 -0.2
v 0.2 1.8 -0.2
v 0.3 0.7 -0.2
v 0.3 0.8 -0.2
v 0.3 1.4 -0.2
v 0.3 1.5 -0.2
v 0.3 1.7 -0.2
v 0.4 0.1 -0.2
v 0.4 0.4 -0.2
v 0.4 0.7 -0.2
v 0.4 0.9 -0.2
v 0.4 1 -0.2
v 0.5 0.8 -0.2
v 0.5 0.9 -0.2
v 0.6 0.1 -0.2
v 0.6 0.4 -0.2
v 0.6 0.8 -0.2
v -0.3 1.4 -0.3
v -0.3 1.7 -0.3
v -0.2 1.4 -0.3
v -0.2 1.5 -0.3
v -0.2 1.7 -0.3
v -0.2 1.8 -0.3
v -0.1 1.7 -0.3
v -0.1 1.8 -0.3
v -0.1 1.9 -0.3
v 0.2 1.7 -0.3
v 0.2 1.8 -0.3
v 0.3 1.4 -0.3
v 0.3 1.5 -0.3
v 0.3 1.7 -0.3
v 0.3 1.9 -0.3
v 0.4 1.4 -0.3
v 0.4 1.7 -0.3
v 0 1 -0.5
v 0 1.1 -0.5
v 0.1 1 -0.5
v 0.1 1.1 -0.5
v 0 1.1 -0.6
v 0 1.2 -0.6
v 0.1 1.1 -0.6
v 0.1 1.2 -0.6
v 0 1.2 -0.7
v 0 1.3 -0.7
v 0.1 1.2 -0.7
v 0.1 1.3 -0.7
v 0 1.3 -0.8
v 0 1.4 -0.8
v 0.1 1.3 -0.8
v 0.1 1.4 -0.8
v 0 1.4 -0.9
v 0 1.5 -0.9
v 0.1 1.4 -0.9
v 0.1 1.5 -0.9
v -0.1 1.4 0.4
v -0.1 1.5 0.4
v 0 1.4 0.4
v 0 1.5 0.4
v 0.1 1.4 0.4
v 0.1 1.5 0.4
v 0.2 1.4 0.4
v 0.2 1.5 0.4
v 0 1.3 -0.1
v 0 1.4 -0.1
v 0.1 1.3 -0.1
v 0.1 1.4 -0.1
v -0.5 0 -0.4
v -0.5 0.1 -0.4
v -0.5 0.4 -0.4
v -0.5 0.8 -0.4
v -0.4 0.8 -0.4
v -0.4 0.9 -0.4
v -0.3 0 -0.4
v -0.3 0.1 -0.4
v -0.3 0.4 -0.4
v -0.3 0.7 -0.4
v -0.3 0.9 -0.4
v -0.3 1 -0.4
v -0.3 1.4 -0.4
v -0.3 1.7 -0.4
v -0.2 0.7 -0.4
v -0.2 0.8 -0.4
v -0.2 1.4 -0.4
v -0.2 1.7 -0.4
v -0.1 1 -0.4
v -0.1 1.2 -0.4
v -0.1 1.4 -0.4
v 0 0.8 -0.4
v 0 0.9 -0.4
v 0 1 -0.4
v 0.1 0.8 -0.4
v 0.1 0.9 -0.4
v 0.1 1 -0.4
v 0.2 1 -0.4
v 0.2 1.2 -0.4
v 0.2 1.4 -0.4
v 0.2 1.8 -0.4
v 0.2 1.9 -0.4
v 0.3 0.7 -0.4
v 0.3 0.8 -0.4
v 0.3 1.8 -0.4
v 0.3 1.9 -0.4
v 0.4 0 -0.4
v 0.4 0.1 -0.4
v 0.4 0.4 -0.4
v 0.4 0.7 -0.4
v 0.4 0.9 -0.4
v 0.4 1 -0.4
v 0.5 0.8 -0.4
v 0.5 0.9 -0.4
v 0.6 0 -0.4
v 0.6 0.1 -0.4
v 0.6 0.4 -0.4
v 0.6 0.8 -0.4
v -0.2 1.4 -0.5
v -0.2 1.8 -0.5
v -0.1 1.4 -0.5
v -0.1 1.8 -0.5
v -0.1 1.9 -0.5
v 0.2 1.4 -0.5
v 0.2 1.5 -0.5
v 0.2 1.7 -0.5
v 0.2 1.8 -0.5
v 0.2 1.9 -0.5
v 0.3 1.5 -0.5
v 0.3 1.7 -0.5
v 0.3 1.8 -0.5
v 0.4 1.4 -0.5
v 0.4 1.7 -0.5
v -0.1 1.4 -0.6
v -0.1 1.8 -0.6
v 0 0.8 -0.6
v 0 0.9 -0.6
v 0.1 0.8 -0.6
v 0.1 0.9 -0.6
v 0.2 1.4 -0.6
v 0.2 1.5 -0.6
v 0.2 1.7 -0.6
v 0.2 1.8 -0.6
v 0.3 1.5 -0.6
v 0.3 1.7 -0.6
v 0 0.9 -0.7
v 0 1 -0.7
v 0.1 0.9 -0.7
v 0.1 1 -0.7
v 0 1 -0.8
v 0 1.1 -0.8
v 0.1 1 -0.8
v 0.1 1.1 -0.8
v 0 1.1 -0.9
v 0 1.2 -0.9
v 0.1 1.1 -0.9
v 0.1 1.2 -0.9
v 0 1.2 -1
v 0 1.3 -1
v 0.1 1.2 -1
v 0.1 1.3 -1
v 0 1.3 -1.1
v 0 1.4 -1.1
v 0 1.5 -1.1
v 0.1 1.3 -1.1
v 0.1 1.4 -1.1
v 0.1 1.5 -1.1
v -0.5 0 0
v -0.3 0 0
v 0.4 0 0
v 0.6 0 0
v -0.5 0 -0.4
v -0.3 0 -0.4
v 0.4 0 -0.4
v 0.6 0 -0.4
v -0.3 0.7 -0.2
v -0.2 0.7 -0.2
v 0.3 0.7 -0.2
v 0.4 0.7 -0.2
v -0.3 0.7 -0.4
v -0.2 0.7 -0.4
v 0.3 0.7 -0.4
v 0.4 0.7 -0.4
v -0.2 0.8 -0.2
v 0.3 0.8 -0.2
v -0.2 0.8 -0.4
v 0 0.8 -0.4
v 0.1 0.8 -0.4
v 0.3 0.8 -0.4
v 0 0.8 -0.5
v 0.1 0.8 -0.5
v 0 0.8 -0.6
v 0.1 0.8 -0.6
v 0 0.9 -0.6
v 0.1 0.9 -0.6
v 0 0.9 -0.7
v 0.1 0.9 -0.7
v 0 1 -0.7
v 0.1 1 -0.7
v 0 1 -0.8
v 0.1 1 -0.8
v -0.1 1.1 0.5
v 0.2 1.1 0.5
v -0.1 1.1 -0.2
v 0.2 1.1 -0.2
v 0 1.1 -0.8
v 0.1 1.1 -0.8
v 0 1.1 -0.9
v 0.1 1.1 -0.9
v 0 1.2 -0.9
v 0.1 1.2 -0.9
v 0 1.2 -1
v 0.1 1.2 -1
v 0 1.3 0.5
v 0.1 1.3 0.5
v 0 1.3 -0.1
v 0.1 1.3 -0.1
v 0 1.3 -1
v 0.1 1.3 -1
v 0 1.3 -1.1
v 0.1 1.3 -1.1
v 0 1.4 -0.1
v 0.1 1.4 -0.1
v -0.2 1.4 -0.2
v -0.1 1.4 -0.2
v 0 1.4 -0.2
v 0.1 1.4 -0.2
v 0.2 1.4 -0.2
v 0.3 1.4 -0.2
v -0.3 1.4 -0.3
v -0.2 1.4 -0.3
v 0.3 1.4 -0.3
v 0.4 1.4 -0.3
v -0.3 1.4 -0.4
v -0.2 1.4 -0.4
v -0.1 1.4 -0.4
v 0.2 1.4 -0.4
v 0.3 1.4 -0.4
v -0.2 1.4 -0.5
v -0.1 1.4 -0.5
v 0.2 1.4 -0.5
v 0.4 1.4 -0.5
v -0.1 1.4 -0.6
v 0.2 1.4 -0.6
v -0.2 1.5 -0.1
v -0.1 1.5 -0.1
v -0.2 1.5 -0.2
v -0.1 1.5 -0.2
v 0.2 1.5 -0.5
v 0.3 1.5 -0.5
v 0.2 1.5 -0.6
v 0.3 1.5 -0.6
v 0 1.6 -0.1
v 0.1 1.6 -0.1
v 0 1.6 -0.2
v 0.1 1.6 -0.2
v -0.5 0.1 0
v -0.3 0.1 0
v 0.4 0.1 0
v 0.6 0.1 0
v -0.5 0.1 -0.2
v -0.3 0.1 -0.2
v 0.4 0.1 -0.2
v 0.6 0.1 -0.2
v -0.5 0.8 -0.2
v -0.4 0.8 -0.2
v 0.5 0.8 -0.2
v 0.6 0.8 -0.2
v -0.5 0.8 -0.4
v -0.4 0.8 -0.4
v 0.5 0.8 -0.4
v 0.6 0.8 -0.4
v -0.4 0.9 -0.2
v -0.3 0.9 -0.2
v 0.4 0.9 -0.2
v 0.5 0.9 -0.2
v -0.4 0.9 -0.4
v -0.3 0.9 -0.4
v 0.4 0.9 -0.4
v 0.5 0.9 -0.4
v -0.3 1 -0.2
v -0.1 1 -0.2
v 0.2 1 -0.2
v 0.4 1 -0.2
v -0.3 1 -0.4
v -0.1 1 -0.4
v 0 1 -0.4
v 0.1 1 -0.4
v 0.2 1 -0.4
v 0.4 1 -0.4
v 0 1 -0.5
v 0.1 1 -0.5
v 0 1.1 -0.5
v 0.1 1.1 -0.5
v 0 1.1 -0.6
v 0.1 1.1 -0.6
v 0 1.2 0.5
v 0.1 1.2 0.5
v 0 1.2 -0.2
v 0.1 1.2 -0.2
v 0 1.2 -0.6
v 0.1 1.2 -0.6
v 0 1.2 -0.7
v 0.1 1.2 -0.7
v 0 1.3 -0.7
v 0.1 1.3 -0.7
v 0 1.3 -0.8
v 0.1 1.3 -0.8
v 0 1.4 0.5
v 0.1 1.4 0.5
v -0.1 1.4 0.4
v 0 1.4 0.4
v 0.1 1.4 0.4
v 0.2 1.4 0.4
v -0.1 1.4 -0.1
v 0.2 1.4 -0.1
v 0 1.4 -0.8
v 0.1 1.4 -0.8
v 0 1.4 -0.9
v 0.1 1.4 -0.9
v -0.1 1.5 0.5
v 0 1.5 0.5
v 0.1 1.5 0.5
v 0.2 1.5 0.5
v -0.1 1.5 0.4
v 0 1.5 0.4
v 0.1 1.5 0.4
v 0.2 1.5 0.4
v -0.1 1.5 -0.1
v 0.2 1.5 -0.1
v -0.1 1.5 -0.2
v 0 1.5 -0.2
v 0.2 1.5 -0.2
v 0 1.5 -0.9
v 0.1 1.5 -0.9
v 0 1.5 -1
v 0.1 1.5 -1
v 0 1.5 -1.1
v 0.1 1.5 -1.1
v -0.2 1.6 -0.1
v -0.1 1.6 -0.1
v -0.2 1.6 -0.2
v -0.1 1.6 -0.2
v 0 1.7 -0.1
v 0.1 1.7 -0.1
v -0.2 1.7 -0.2
v -0.1 1.7 -0.2
v 0 1.7 -0.2
v 0.1 1.7 -0.2
v 0.2 1.7 -0.2
v 0.3 1.7 -0.2
v -0.3 1.7 -0.3
v -0.2 1.7 -0.3
v -0.1 1.7 -0.3
v 0.2 1.7 -0.3
v 0.3 1.7 -0.3
v 0.4 1.7 -0.3
v -0.3 1.7 -0.4
v -0.2 1.7 -0.4
v 0.2 1.7 -0.5
v 0.3 1.7 -0.5
v 0.4 1.7 -0.5
v 0.2 1.7 -0.6
v 0.3 1.7 -0.6
v -0.1 1.8 -0.2
v 0.2 1.8 -0.2
v -0.2 1.8 -0.3
v -0.1 1.8 -0.3
v 0.2 1.8 -0.3
v 0.2 1.8 -0.4
v 0.3 1.8 -0.4
v -0.2 1.8 -0.5
v -0.1 1.8 -0.5
v 0.2 1.8 -0.5
v 0.3 1.8 -0.5
v -0.1 1.8 -0.6
v 0.2 1.8 -0.6
v -0.1 1.9 -0.3
v 0.3 1.9 -0.3
v 0.2 1.9 -0.4
v 0.3 1.9 -0.4
v -0.1 1.9 -0.5
v 0.2 1.9 -0.5

# faces
f 3/6/1 2/6/1 1/6/1
f 4/6/1 2/6/1 3/6/1
f 5/6/1 2/6/1 4/6/1
f 6/1/1 5/1/1 4/1/1
f 7/1/1 5/1/1 6/1/1
f 8/3/1 7/3/1 6/3/1
f 9/3/1 7/3/1 8/3/1
f 12/3/1 11/3/1 10/3/1
f 13/3/1 11/3/1 12/3/1
f 16/3/1 15/3/1 14/3/1
f 17/3/1 15/3/1 16/3/1
f 20/7/1 19/7/1 18/7/1
f 21/7/1 19/7/1 20/7/1
f 27/1/1 23/1/1 22/1/1
f 28/1/1 23/1/1 27/1/1
f 29/4/1 27/4/1 26/4/1
f 30/7/1 28/7/1 27/7/1
f 30/4/1 27/4/1 29/4/1
f 31/7/1 28/7/1 30/7/1
f 32/7/1 28/7/1 31/7/1
f 33/7/1 25/7/1 24/7/1
f 34/7/1 33/7/1 32/7/1
f 35/7/1 25/7/1 33/7/1
f 35/7/1 33/7/1 34/7/1
f 39/3/1 37/3/1 36/3/1
f 40/3/1 37/3/1 39/3/1
f 40/5/1 39/5/1 38/5/1
f 41/3/1 37/3/1 40/3/1
f 42/5/1 40/5/1 38/5/1
f 43/5/1 40/5/1 42/5/1
f 44/1/1 41/1/1 40/1/1
f 44/5/1 40/5/1 43/5/1
f 45/1/1 41/1/1 44/1/1
f 48/5/1 42/5/1 38/5/1
f 49/5/1 42/5/1 48/5/1
f 50/1/1 44/1/1 43/1/1
f 51/1/1 44/1/1 50/1/1
f 54/7/1 53/7/1 52/7/1
f 55/7/1 53/7/1 54/7/1
f 56/7/1 47/7/1 46/7/1
f 57/7/1 47/7/1 56/7/1
f 58/7/1 56/7/1 55/7/1
f 59/7/1 56/7/1 58/7/1
f 63/2/1 61/2/1 60/2/1
f 64/8/1 62/8/1 61/8/1
f 64/2/1 61/2/1 63/2/1
f 65/8/1 62/8/1 64/8/1
f 67/8/1 64/8/1 63/8/1
f 68/2/1 66/2/1 65/2/1
f 68/8/1 64/8/1 67/8/1
f 68/2/1 65/2/1 64/2/1
f 69/2/1 66/2/1 68/2/1
f 71/2/1 69/2/1 68/2/1
f 72/2/1 69/2/1 71/2/1
f 73/8/1 70/8/1 69/8/1
f 73/2/1 69/2/1 72/2/1
f 74/8/1 70/8/1 73/8/1
f 76/8/1 73/8/1 72/8/1
f 77/2/1 75/2/1 74/2/1
f 77/8/1 73/8/1 76/8/1
f 77/2/1 74/2/1 73/2/1
f 78/2/1 75/2/1 77/2/1
f 80/2/1 78/2/1 77/2/1
f 81/2/1 78/2/1 80/2/1
f 82/8/1 79/8/1 78/8/1
f 82/2/1 78/2/1 81/2/1
f 83/8/1 79/8/1 82/8/1
f 85/8/1 82/8/1 81/8/1
f 86/2/1 84/2/1 83/2/1
f 86/8/1 82/8/1 85/8/1
f 86/2/1 83/2/1 82/2/1
f 87/2/1 84/2/1 86/2/1
f 88/2/1 84/2/1 87/2/1
f 89/2/1 87/2/1 86/2/1
f 90/8/1 88/8/1 87/8/1
f 90/2/1 87/2/1 89/2/1
f 91/8/1 88/8/1 90/8/1
f 94/4/1 93/4/1 92/4/1
f 95/4/1 93/4/1 94/4/1
f 98/5/1 97/5/1 96/5/1
f 99/5/1 97/5/1 98/5/1
f 102/5/1 97/5/1 99/5/1
f 103/5/1 97/5/1 102/5/1
f 104/5/1 101/5/1 100/5/1
f 105/5/1 101/5/1 104/5/1
f 108/3/1 107/3/1 106/3/1
f 109/3/1 107/3/1 108/3/1
f 112/6/1 111/6/1 110/6/1
f 113/6/1 111/6/1 112/6/1
f 114/6/1 111/6/1 113/6/1
f 115/1/1 114/1/1 113/1/1
f 116/1/1 114/1/1 115/1/1
f 117/3/1 116/3/1 115/3/1
f 118/3/1 116/3/1 117/3/1
f 119/6/2 120/6/2 121/6/2
f 121/6/2 120/6/2 122/6/2
f 122/6/2 120/6/2 123/6/2
f 122/1/2 123/1/2 124/1/2
f 124/1/2 123/1/2 125/1/2
f 124/3/2 125/3/2 126/3/2
f 126/3/2 125/3/2 127/3/2
f 128/3/2 129/3/2 130/3/2
f 130/3/2 129/3/2 131/3/2
f 132/4/2 133/4/2 134/4/2
f 134/4/2 133/4/2 135/4/2
f 136/5/2 137/5/2 138/5/2
f 138/5/2 137/5/2 139/5/2
f 139/5/2 137/5/2 142/5/2
f 142/5/2 137/5/2 143/5/2
f 140/5/2 141/5/2 144/5/2
f 144/5/2 141/5/2 145/5/2
f 146/2/2 147/2/2 149/2/2
f 147/8/2 148/8/2 150/8/2
f 149/2/2 147/2/2 150/2/2
f 150/8/2 148/8/2 151/8/2
f 149/8/2 150/8/2 153/8/2
f 151/2/2 152/2/2 154/2/2
f 153/8/2 150/8/2 154/8/2
f 150/2/2 151/2/2 154/2/2
f 154/2/2 152/2/2 155/2/2
f 154/2/2 155/2/2 157/2/2
f 157/2/2 155/2/2 158/2/2
f 155/8/2 156/8/2 159/8/2
f 158/2/2 155/2/2 159/2/2
f 159/8/2 156/8/2 160/8/2
f 158/8/2 159/8/2 162/8/2
f 160/2/2 161/2/2 163/2/2
f 162/8/2 159/8/2 163/8/2
f 159/2/2 160/2/2 163/2/2
f 163/2/2 161/2/2 164/2/2
f 163/2/2 164/2/2 166/2/2
f 166/2/2 164/2/2 167/2/2
f 164/8/2 165/8/2 168/8/2
f 167/2/2 164/2/2 168/2/2
f 168/8/2 165/8/2 169/8/2
f 167/8/2 168/8/2 171/8/2
f 169/2/2 170/2/2 172/2/2
f 171/8/2 168/8/2 172/8/2
f 168/2/2 169/2/2 172/2/2
f 172/2/2 170/2/2 173/2/2
f 173/2/2 170/2/2 174/2/2
f 172/2/2 173/2/2 175/2/2
f 173/8/2 174/8/2 176/8/2
f 175/2/2 173/2/2 176/2/2
f 176/8/2 174/8/2 177/8/2
f 178/4/2 179/4/2 180/4/2
f 180/4/2 179/4/2 181/4/2
f 182/3/2 183/3/2 185/3/2
f 185/3/2 183/3/2 186/3/2
f 184/5/2 185/5/2 186/5/2
f 186/3/2 183/3/2 187/3/2
f 184/5/2 186/5/2 188/5/2
f 188/5/2 186/5/2 189/5/2
f 186/1/2 187/1/2 190/1/2
f 189/5/2 186/5/2 190/5/2
f 190/1/2 187/1/2 191/1/2
f 184/5/2 188/5/2 194/5/2
f 194/5/2 188/5/2 195/5/2
f 189/1/2 190/1/2 196/1/2
f 196/1/2 190/1/2 197/1/2
f 192/7/2 193/7/2 198/7/2
f 198/7/2 193/7/2 199/7/2
f 200/7/2 201/7/2 204/7/2
f 204/7/2 201/7/2 205/7/2
f 202/7/2 203/7/2 207/7/2
f 207/7/2 203/7/2 208/7/2
f 206/7/2 207/7/2 209/7/2
f 209/7/2 207/7/2 210/7/2
f 211/1/2 212/1/2 213/1/2
f 213/1/2 212/1/2 214/1/2
f 213/7/2 214/7/2 217/7/2
f 217/7/2 214/7/2 218/7/2
f 215/7/2 216/7/2 219/7/2
f 219/7/2 216/7/2 220/7/2
f 218/7/2 219/7/2 221/7/2
f 221/7/2 219/7/2 222/7/2
f 218/7/2 221/7/2 223/7/2
f 223/7/2 221/7/2 224/7/2
f 225/3/2 226/3/2 227/3/2
f 227/3/2 226/3/2 228/3/2
f 229/7/2 230/7/2 231/7/2
f 231/7/2 230/7/2 232/7/2
f 233/3/2 234/3/2 235/3/2
f 235/3/2 234/3/2 236/3/2
f 237/6/2 238/6/2 239/6/2
f 239/6/2 238/6/2 240/6/2
f 240/6/2 238/6/2 241/6/2
f 240/1/2 241/1/2 242/1/2
f 242/1/2 241/1/2 243/1/2
f 242/3/2 243/3/2 244/3/2
f 244/3/2 243/3/2 245/3/2
f 248/5/3 247/5/3 246/5/3
f 249/5/3 247/5/3 248/5/3
f 250/5/3 247/5/3 249/5/3
f 251/5/3 247/5/3 250/5/3
f 252/5/3 248/5/3 246/5/3
f 253/5/3 250/5/3 249/5/3
f 254/5/3 250/5/3 253/5/3
f 256/5/3 252/5/3 246/5/3
f 256/5/3 255/5/3 254/5/3
f 256/5/3 254/5/3 253/5/3
f 256/5/3 253/5/3 252/5/3
f 257/5/3 255/5/3 256/5/3
f 260/6/3 259/6/3 258/6/3
f 261/6/3 259/6/3 260/6/3
f 264/6/3 263/6/3 262/6/3
f 265/6/3 263/6/3 264/6/3
f 269/4/3 267/4/3 266/4/3
f 270/4/3 267/4/3 269/4/3
f 273/4/3 272/4/3 271/4/3
f 274/4/3 272/4/3 273/4/3
f 275/1/3 269/1/3 268/1/3
f 276/1/3 269/1/3 275/1/3
f 280/3/3 279/3/3 278/3/3
f 282/1/3 278/1/3 277/1/3
f 283/3/3 281/3/3 280/3/3
f 283/1/3 278/1/3 282/1/3
f 283/3/3 280/3/3 278/3/3
f 284/3/3 281/3/3 283/3/3
f 285/3/3 281/3/3 284/3/3
f 287/3/3 286/3/3 285/3/3
f 287/3/3 285/3/3 284/3/3
f 288/3/3 286/3/3 287/3/3
f 293/3/3 286/3/3 288/3/3
f 295/1/3 290/1/3 289/1/3
f 296/1/3 290/1/3 295/1/3
f 297/7/3 292/7/3 291/7/3
f 298/7/3 292/7/3 297/7/3
f 302/8/3 297/8/3 296/8/3
f 303/1/3 298/1/3 297/1/3
f 303/8/3 297/8/3 302/8/3
f 304/7/3 299/7/3 298/7/3
f 304/1/3 298/1/3 303/1/3
f 305/1/3 301/1/3 300/1/3
f 306/1/3 301/1/3 305/1/3
f 307/1/3 303/1/3 302/1/3
f 308/7/3 299/7/3 304/7/3
f 309/3/3 294/3/3 293/3/3
f 309/3/3 293/3/3 288/3/3
f 310/3/3 294/3/3 309/3/3
f 312/1/3 307/1/3 302/1/3
f 313/8/3 308/8/3 307/8/3
f 313/1/3 307/1/3 312/1/3
f 314/7/3 299/7/3 308/7/3
f 314/8/3 308/8/3 313/8/3
f 315/7/3 299/7/3 314/7/3
f 317/3/3 309/3/3 288/3/3
f 318/1/3 312/1/3 311/1/3
f 319/7/3 313/7/3 312/7/3
f 319/1/3 312/1/3 318/1/3
f 319/7/3 314/7/3 313/7/3
f 320/7/3 314/7/3 319/7/3
f 323/3/3 317/3/3 316/3/3
f 324/3/3 309/3/3 317/3/3
f 324/3/3 317/3/3 323/3/3
f 325/3/3 309/3/3 324/3/3
f 326/3/3 323/3/3 322/3/3
f 326/3/3 324/3/3 323/3/3
f 327/3/3 324/3/3 326/3/3
f 328/1/3 322/1/3 321/1/3
f 329/3/3 326/3/3 322/3/3
f 329/1/3 322/1/3 328/1/3
f 330/3/3 326/3/3 329/3/3
f 333/7/3 332/7/3 331/7/3
f 334/7/3 332/7/3 333/7/3
f 335/7/3 332/7/3 334/7/3
f 337/7/3 336/7/3 335/7/3
f 338/7/3 336/7/3 337/7/3
f 341/7/3 339/7/3 338/7/3
f 344/7/3 341/7/3 340/7/3
f 345/7/3 339/7/3 341/7/3
f 345/7/3 341/7/3 344/7/3
f 346/7/3 344/7/3 343/7/3
f 346/7/3 343/7/3 342/7/3
f 347/7/3 344/7/3 346/7/3
f 350/2/3 349/2/3 348/2/3
f 351/2/3 349/2/3 350/2/3
f 354/8/3 353/8/3 352/8/3
f 355/8/3 353/8/3 354/8/3
f 358/2/3 357/2/3 356/2/3
f 359/2/3 357/2/3 358/2/3
f 362/8/3 361/8/3 360/8/3
f 363/8/3 361/8/3 362/8/3
f 366/2/3 365/2/3 364/2/3
f 367/2/3 365/2/3 366/2/3
f 368/5/4 369/5/4 370/5/4
f 370/5/4 369/5/4 371/5/4
f 372/5/4 373/5/4 374/5/4
f 374/5/4 373/5/4 375/5/4
f 376/5/4 377/5/4 378/5/4
f 378/5/4 377/5/4 379/5/4
f 382/3/4 383/3/4 384/3/4
f 380/6/4 381/6/4 386/6/4
f 381/1/4 382/1/4 387/1/4
f 386/6/4 381/6/4 387/6/4
f 384/3/4 385/3/4 388/3/4
f 387/1/4 382/1/4 388/1/4
f 382/3/4 384/3/4 388/3/4
f 388/3/4 385/3/4 389/3/4
f 389/3/4 385/3/4 390/3/4
f 390/3/4 391/3/4 394/3/4
f 389/3/4 390/3/4 394/3/4
f 394/3/4 391/3/4 395/3/4
f 392/7/4 393/7/4 396/7/4
f 396/7/4 393/7/4 397/7/4
f 395/3/4 391/3/4 398/3/4
f 395/3/4 398/3/4 401/3/4
f 398/3/4 399/3/4 401/3/4
f 401/3/4 399/3/4 402/3/4
f 402/3/4 399/3/4 403/3/4
f 403/3/4 399/3/4 406/3/4
f 404/3/4 405/3/4 407/3/4
f 405/3/4 406/3/4 407/3/4
f 406/3/4 399/3/4 407/3/4
f 399/1/4 400/1/4 408/1/4
f 407/3/4 399/3/4 408/3/4
f 408/1/4 400/1/4 409/1/4
f 404/3/4 407/3/4 413/3/4
f 410/7/4 411/7/4 414/7/4
f 414/7/4 411/7/4 415/7/4
f 412/3/4 413/3/4 419/3/4
f 413/3/4 407/3/4 420/3/4
f 419/3/4 413/3/4 420/3/4
f 420/3/4 407/3/4 421/3/4
f 418/3/4 419/3/4 422/3/4
f 419/3/4 420/3/4 422/3/4
f 422/3/4 420/3/4 423/3/4
f 416/6/4 417/6/4 424/6/4
f 417/1/4 418/1/4 425/1/4
f 424/6/4 417/6/4 425/6/4
f 418/3/4 422/3/4 426/3/4
f 425/1/4 418/1/4 426/1/4
f 426/3/4 422/3/4 427/3/4
f 428/7/4 429/7/4 430/7/4
f 430/7/4 429/7/4 431/7/4
f 431/7/4 432/7/4 436/7/4
f 436/7/4 432/7/4 437/7/4
f 433/7/4 434/7/4 438/7/4
f 435/7/4 436/7/4 439/7/4
f 439/7/4 436/7/4 440/7/4
f 433/7/4 438/7/4 441/7/4
f 438/7/4 439/7/4 441/7/4
f 441/7/4 439/7/4 442/7/4
f 445/8/4 446/8/4 447/8/4
f 447/8/4 446/8/4 448/8/4
f 443/7/4 444/7/4 449/7/4
f 449/7/4 444/7/4 450/7/4
f 450/7/4 444/7/4 451/7/4
f 451/7/4 444/7/4 452/7/4
f 450/7/4 451/7/4 453/7/4
f 453/7/4 451/7/4 454/7/4
f 455/2/4 456/2/4 457/2/4
f 457/2/4 456/2/4 458/2/4
f 459/8/4 460/8/4 461/8/4
f 461/8/4 460/8/4 462/8/4
f 463/2/4 464/2/4 465/2/4
f 465/2/4 464/2/4 466/2/4
f 467/8/4 468/8/4 469/8/4
f 469/8/4 468/8/4 470/8/4
f 471/2/4 472/2/4 474/2/4
f 472/8/4 473/8/4 475/8/4
f 474/2/4 472/2/4 475/2/4
f 475/8/4 473/8/4 476/8/4
f 481/6/5 478/6/5 477/6/5
f 482/6/5 478/6/5 481/6/5
f 483/6/5 480/6/5 479/6/5
f 484/6/5 480/6/5 483/6/5
f 489/3/5 486/3/5 485/3/5
f 490/3/5 486/3/5 489/3/5
f 491/3/5 488/3/5 487/3/5
f 492/3/5 488/3/5 491/3/5
f 495/3/5 494/3/5 493/3/5
f 496/3/5 494/3/5 495/3/5
f 497/3/5 494/3/5 496/3/5
f 498/3/5 494/3/5 497/3/5
f 499/2/5 497/2/5 496/2/5
f 500/2/5 497/2/5 499/2/5
f 501/8/5 500/8/5 499/8/5
f 502/8/5 500/8/5 501/8/5
f 505/2/5 504/2/5 503/2/5
f 506/2/5 504/2/5 505/2/5
f 509/8/5 508/8/5 507/8/5
f 510/8/5 508/8/5 509/8/5
f 513/5/5 512/5/5 511/5/5
f 514/5/5 512/5/5 513/5/5
f 517/2/5 516/2/5 515/2/5
f 518/2/5 516/2/5 517/2/5
f 521/8/5 520/8/5 519/8/5
f 522/8/5 520/8/5 521/8/5
f 525/5/5 524/5/5 523/5/5
f 526/5/5 524/5/5 525/5/5
f 529/2/5 528/2/5 527/2/5
f 530/2/5 528/2/5 529/2/5
f 535/1/5 532/1/5 531/1/5
f 536/1/5 532/1/5 535/1/5
f 540/1/5 534/1/5 533/1/5
f 541/1/5 538/1/5 537/1/5
f 543/7/5 540/7/5 539/7/5
f 544/1/5 534/1/5 540/1/5
f 544/7/5 540/7/5 543/7/5
f 545/1/5 534/1/5 544/1/5
f 546/1/5 541/1/5 537/1/5
f 547/7/5 542/7/5 541/7/5
f 547/1/5 541/1/5 546/1/5
f 548/7/5 545/7/5 544/7/5
f 549/1/5 546/1/5 545/1/5
f 549/7/5 545/7/5 548/7/5
f 550/7/5 547/7/5 546/7/5
f 550/1/5 546/1/5 549/1/5
f 551/7/5 542/7/5 547/7/5
f 551/7/5 547/7/5 550/7/5
f 552/7/5 550/7/5 549/7/5
f 553/7/5 550/7/5 552/7/5
f 556/4/5 555/4/5 554/4/5
f 557/4/5 555/4/5 556/4/5
f 560/7/5 559/7/5 558/7/5
f 561/7/5 559/7/5 560/7/5
f 564/4/5 563/4/5 562/4/5
f 565/4/5 563/4/5 564/4/5
f 566/6/6 567/6/6 570/6/6
f 570/6/6 567/6/6 571/6/6
f 568/6/6 569/6/6 572/6/6
f 572/6/6 569/6/6 573/6/6
f 574/3/6 575/3/6 578/3/6
f 578/3/6 575/3/6 579/3/6
f 576/3/6 577/3/6 580/3/6
f 580/3/6 577/3/6 581/3/6
f 582/3/6 583/3/6 586/3/6
f 586/3/6 583/3/6 587/3/6
f 584/3/6 585/3/6 588/3/6
f 588/3/6 585/3/6 589/3/6
f 590/3/6 591/3/6 594/3/6
f 594/3/6 591/3/6 595/3/6
f 592/3/6 593/3/6 598/3/6
f 598/3/6 593/3/6 599/3/6
f 596/8/6 597/8/6 600/8/6
f 600/8/6 597/8/6 601/8/6
f 602/2/6 603/2/6 604/2/6
f 604/2/6 603/2/6 605/2/6
f 606/5/6 607/5/6 608/5/6
f 608/5/6 607/5/6 609/5/6
f 610/8/6 611/8/6 612/8/6
f 612/8/6 611/8/6 613/8/6
f 614/2/6 615/2/6 616/2/6
f 616/2/6 615/2/6 617/2/6
f 618/5/6 619/5/6 621/5/6
f 621/5/6 619/5/6 622/5/6
f 620/5/6 621/5/6 624/5/6
f 622/5/6 623/5/6 624/5/6
f 621/5/6 622/5/6 624/5/6
f 624/5/6 623/5/6 625/5/6
f 626/8/6 627/8/6 628/8/6
f 628/8/6 627/8/6 629/8/6
f 630/5/6 631/5/6 634/5/6
f 634/5/6 631/5/6 635/5/6
f 632/5/6 633/5/6 636/5/6
f 636/5/6 633/5/6 637/5/6
f 638/1/6 639/1/6 640/1/6
f 640/1/6 639/1/6 641/1/6
f 641/1/6 639/1/6 642/1/6
f 643/2/6 644/2/6 645/2/6
f 645/2/6 644/2/6 646/2/6
f 645/8/6 646/8/6 647/8/6
f 647/8/6 646/8/6 648/8/6
f 649/4/6 650/4/6 651/4/6
f 651/4/6 650/4/6 652/4/6
f 653/4/6 654/4/6 657/4/6
f 657/4/6 654/4/6 658/4/6
f 655/7/6 656/7/6 662/7/6
f 662/7/6 656/7/6 663/7/6
f 659/7/6 660/7/6 664/7/6
f 664/7/6 660/7/6 665/7/6
f 661/7/6 662/7/6 667/7/6
f 667/7/6 662/7/6 668/7/6
f 665/7/6 666/7/6 670/7/6
f 670/7/6 666/7/6 671/7/6
f 669/7/6 670/7/6 672/7/6
f 672/7/6 670/7/6 673/7/6
f 674/7/6 675/7/6 677/7/6
f 677/7/6 675/7/6 678/7/6
f 676/7/6 677/7/6 681/7/6
f 681/7/6 677/7/6 682/7/6
f 679/7/6 680/7/6 683/7/6
f 683/7/6 680/7/6 684/7/6
f 682/7/6 683/7/6 685/7/6
f 685/7/6 683/7/6 686/7/6
f 687/7/6 688/7/6 689/7/6
f 689/7/6 688/7/6 690/7/6
f 687/7/6 689/7/6 691/7/6
f 691/7/6 689/7/6 692/7/6
